<?xml version="1.0" standalone="no"?>
<!DOCTYPE svg PUBLIC "-//W3C//DTD SVG 20010904//EN"
 "http://www.w3.org/TR/2001/REC-SVG-20010904/DTD/svg10.dtd">
<svg version="1.0" xmlns="http://www.w3.org/2000/svg"
 width="600.000000pt" height="600.000000pt" viewBox="0 0 600.000000 600.000000"
 preserveAspectRatio="xMidYMid meet">
<metadata>
Created by potrace 1.11, written by Peter Selinger 2001-2013
</metadata>
<g transform="translate(0.000000,600.000000) scale(0.100000,-0.100000)"
fill="#000000" stroke="none">
<path d="M3255 5490 c-3 -6 1 -7 9 -4 18 7 21 14 7 14 -6 0 -13 -4 -16 -10z"/>
<path d="M3296 5491 c-3 -5 4 -11 17 -15 36 -9 47 -7 41 9 -7 16 -49 21 -58 6z"/>
<path d="M2870 5473 c-19 -8 -52 -28 -72 -45 -30 -23 -38 -37 -38 -62 0 -35
42 -87 55 -67 3 6 4 15 1 19 -13 21 18 88 58 123 47 42 46 52 -4 32z"/>
<path d="M3234 5455 l-29 -13 28 -11 c29 -11 53 -5 74 21 15 18 -34 20 -73 3z
m41 -15 c-3 -5 -11 -10 -16 -10 -6 0 -7 5 -4 10 3 6 11 10 16 10 6 0 7 -4 4
-10z"/>
<path d="M2933 5442 c-23 -10 -47 -22 -53 -28 -15 -15 -25 -128 -11 -119 6 3
11 11 11 17 0 6 11 26 25 44 14 18 25 39 25 46 0 8 19 24 43 35 52 27 22 30
-40 5z"/>
<path d="M3435 5451 c-3 -5 -26 -9 -51 -8 -40 2 -51 -3 -85 -34 -21 -20 -68
-50 -104 -67 -36 -18 -65 -37 -65 -42 0 -17 18 -11 73 24 29 19 69 41 89 49
19 8 39 20 42 26 4 6 15 11 24 11 13 0 12 -5 -8 -20 -14 -10 -21 -22 -16 -27
4 -4 21 7 36 26 16 18 33 30 38 27 5 -3 12 1 16 9 3 8 15 15 26 15 11 0 20 5
20 10 0 13 -27 13 -35 1z"/>
<path d="M2700 5425 c-11 -13 -10 -14 4 -9 9 3 16 10 16 15 0 13 -6 11 -20 -6z"/>
<path d="M3007 5409 c-11 -6 -24 -12 -30 -13 -31 -5 -57 -30 -66 -63 -6 -20
-8 -40 -6 -44 3 -4 34 -7 70 -8 57 0 66 2 76 22 7 12 18 26 25 30 17 10 18 31
2 24 -7 -2 -24 -7 -38 -11 -22 -6 -21 -4 7 14 36 24 36 41 0 32 -20 -5 -21 -4
-8 11 11 14 11 17 0 17 -8 0 -22 -5 -32 -11z"/>
<path d="M3532 5402 c-10 -10 -23 -17 -28 -15 -6 2 -21 -8 -34 -22 -13 -14
-18 -25 -12 -25 21 0 13 -20 -13 -32 -14 -6 -25 -15 -25 -20 0 -11 38 -10 45
2 3 6 24 10 45 10 21 0 42 5 46 12 5 8 -3 9 -30 5 -27 -4 -36 -3 -32 6 3 7 9
20 12 29 3 9 19 21 35 27 23 8 34 6 61 -13 37 -25 68 -25 47 0 -6 8 -18 14
-26 14 -8 0 -28 9 -44 20 -27 20 -29 20 -47 2z"/>
<path d="M3443 5391 c-26 -22 -29 -31 -9 -31 7 0 21 11 30 25 19 29 10 32 -21
6z"/>
<path d="M2715 5370 c-4 -6 -10 -8 -15 -5 -5 3 -15 -4 -24 -16 -13 -20 -13
-24 7 -51 l22 -30 7 34 c8 40 5 44 -16 23 -9 -9 -16 -12 -16 -6 0 6 12 22 27
36 15 14 25 25 21 25 -4 0 -10 -5 -13 -10z"/>
<path d="M3534 5355 c-10 -8 -14 -15 -7 -15 19 0 43 11 43 21 0 13 -14 11 -36
-6z"/>
<path d="M3340 5345 c-24 -15 -24 -15 19 -13 25 2 46 9 49 16 5 17 -37 15 -68
-3z"/>
<path d="M2631 5324 c0 -11 3 -14 6 -6 3 7 2 16 -1 19 -3 4 -6 -2 -5 -13z"/>
<path d="M3090 5325 c-7 -9 -11 -18 -8 -20 3 -3 11 1 18 10 7 9 11 18 8 20 -3
3 -11 -1 -18 -10z"/>
<path d="M3566 5315 c-19 -28 -20 -35 -6 -35 5 0 16 14 25 30 19 36 4 40 -19
5z"/>
<path d="M3610 5316 c0 -7 -11 -25 -25 -40 -14 -15 -25 -29 -25 -30 0 -8 51
-13 55 -5 3 4 -2 9 -11 11 -14 2 -11 9 13 35 17 18 28 35 25 38 -11 10 -32 5
-32 -9z"/>
<path d="M2574 5303 c-3 -10 -10 -26 -16 -37 -13 -24 27 -70 41 -47 6 9 19 12
40 8 30 -6 31 -5 31 29 0 28 -3 35 -15 31 -8 -4 -17 -2 -20 4 -7 10 -24 -4
-44 -36 -11 -17 -11 -14 -7 23 6 42 0 57 -10 25z m66 -43 c0 -5 -4 -10 -10
-10 -5 0 -10 5 -10 10 0 6 5 10 10 10 6 0 10 -4 10 -10z"/>
<path d="M3220 5285 c-7 -8 -8 -15 -2 -15 5 0 15 7 22 15 7 8 8 15 2 15 -5 0
-15 -7 -22 -15z"/>
<path d="M2508 5270 c-7 -24 -3 -38 8 -28 3 4 4 17 2 30 l-3 23 -7 -25z"/>
<path d="M3666 5282 c-3 -6 -1 -14 5 -17 14 -9 20 -2 10 14 -6 8 -11 9 -15 3z"/>
<path d="M2460 5240 c0 -11 6 -19 12 -17 7 1 14 -9 16 -23 2 -14 10 -29 18
-33 8 -4 14 -13 14 -18 0 -6 -13 -1 -30 11 -16 12 -29 25 -27 30 1 4 -2 7 -8
7 -5 -1 -10 -6 -10 -12 0 -5 -4 -15 -7 -21 -9 -14 0 -24 23 -24 9 0 19 -6 21
-12 4 -10 14 -8 41 7 22 12 32 22 25 26 -7 4 -1 9 13 11 23 4 23 5 4 13 -20 8
-41 25 -73 58 -22 22 -32 22 -32 -3z"/>
<path d="M3565 5190 c3 -5 11 -10 16 -10 6 0 7 5 4 10 -3 6 -11 10 -16 10 -6
0 -7 -4 -4 -10z"/>
<path d="M2415 5120 c-3 -5 -1 -10 4 -10 6 0 11 5 11 10 0 6 -2 10 -4 10 -3 0
-8 -4 -11 -10z"/>
<path d="M2433 5094 c-10 -14 -33 -41 -50 -61 -18 -20 -33 -42 -33 -49 0 -7
-3 -21 -6 -31 -5 -15 -4 -15 5 -3 17 24 14 -9 -4 -44 -8 -15 -15 -30 -15 -32
0 -7 35 9 53 24 18 16 20 9 8 -23 -4 -11 -17 -20 -27 -20 -26 0 -33 -52 -8
-57 16 -3 17 -4 1 -20 -9 -9 -17 -21 -17 -26 0 -13 27 -23 45 -16 26 10 17
-21 -25 -84 -40 -60 -50 -98 -29 -119 8 -8 8 -19 -2 -40 -15 -30 -14 -73 1
-73 10 0 43 56 45 75 1 6 5 18 9 28 5 10 3 23 -4 31 -8 11 -9 20 0 36 6 12 9
26 6 33 -3 9 -5 9 -5 0 -1 -17 -21 -17 -21 0 0 8 9 25 20 38 32 39 35 43 49
74 8 17 14 34 12 39 -1 4 4 15 11 23 9 11 9 16 -2 23 -9 5 -18 3 -25 -6 -6 -9
-18 -12 -27 -9 -15 6 -15 10 4 41 13 22 18 43 14 59 -3 13 -2 27 4 30 5 3 10
14 10 25 0 10 7 21 16 24 13 5 15 1 10 -19 l-7 -26 30 22 c24 18 28 26 20 40
-7 14 -5 26 7 44 20 30 3 34 -36 9 -23 -15 -23 -14 3 10 24 24 25 29 13 42
-21 20 -33 18 -53 -12z m-3 -323 c0 -6 -4 -13 -10 -16 -5 -3 -10 1 -10 9 0 9
5 16 10 16 6 0 10 -4 10 -9z m-50 -10 c0 -6 -4 -13 -10 -16 -5 -3 -10 1 -10 9
0 9 5 16 10 16 6 0 10 -4 10 -9z"/>
<path d="M2380 5069 c0 -5 5 -7 10 -4 6 3 10 8 10 11 0 2 -4 4 -10 4 -5 0 -10
-5 -10 -11z"/>
<path d="M3711 5054 c15 -16 25 -21 28 -13 2 7 -4 18 -15 26 -30 22 -39 15
-13 -13z"/>
<path d="M2400 4655 c-8 -9 -8 -15 -2 -15 12 0 26 19 19 26 -2 2 -10 -2 -17
-11z"/>
<path d="M2790 4576 c-74 -28 -88 -35 -95 -45 -3 -6 -1 -11 5 -11 7 0 10 -7 6
-15 -10 -26 20 -16 49 17 27 30 29 31 36 11 11 -30 28 -38 22 -11 -4 20 -3 21
7 6 6 -10 22 -18 36 -18 24 0 24 1 9 24 -11 16 -13 26 -6 31 18 10 31 -4 31
-33 0 -19 3 -23 9 -13 5 7 5 25 2 40 -6 21 -14 26 -42 28 -19 2 -50 -3 -69
-11z"/>
<path d="M3390 4565 c-11 -13 -10 -14 2 -10 9 4 27 -6 44 -24 28 -30 54 -40
54 -22 0 5 -7 14 -15 21 -19 16 -19 30 0 30 9 0 21 -12 27 -27 11 -27 12 -27
15 -5 4 22 27 30 38 12 3 -5 15 -15 26 -21 19 -10 19 -9 9 10 -17 33 -64 51
-128 51 -41 0 -63 -5 -72 -15z"/>
<path d="M2997 4532 c-3 -4 3 -13 14 -20 10 -7 19 -8 19 -3 0 13 -28 33 -33
23z"/>
<path d="M2220 4415 c-11 -13 -11 -20 0 -40 l13 -25 23 21 23 22 7 -27 c3 -15
15 -33 27 -41 16 -11 18 -17 8 -29 -13 -16 -11 -56 7 -97 6 -15 14 -42 17 -61
7 -38 39 -86 48 -71 3 5 -3 27 -14 48 -15 27 -19 47 -14 69 12 57 4 142 -13
139 -6 -2 -18 12 -26 30 -14 35 -59 77 -81 77 -7 0 -18 -7 -25 -15z"/>
<path d="M2976 4202 c-12 -38 2 -57 70 -95 64 -36 135 -49 148 -29 7 12 -44
57 -92 82 -32 17 -45 19 -61 11 -28 -16 -30 -15 -45 21 -13 29 -14 30 -20 10z"/>
<path d="M3293 4144 c-25 -11 -12 -24 23 -24 24 0 34 4 32 13 -5 13 -35 19
-55 11z"/>
<path d="M2427 4050 c4 -25 8 -73 8 -107 0 -61 0 -61 19 -41 19 21 19 23 2 92
-22 85 -41 122 -29 56z"/>
<path d="M3005 3895 c-5 -2 -31 -6 -57 -10 -59 -8 -65 -31 -10 -40 64 -11 67
-11 67 10 0 15 7 20 25 20 14 0 31 4 38 8 7 5 24 6 38 3 14 -4 24 -2 24 4 0 9
-101 13 -125 5z"/>
<path d="M3397 3849 c4 -14 11 -18 22 -13 9 3 24 9 34 11 31 9 18 23 -22 23
-35 0 -38 -2 -34 -21z"/>
<path d="M2715 3790 c4 -14 16 -37 27 -53 11 -15 42 -69 69 -120 27 -50 49
-83 49 -72 0 29 -33 96 -87 178 -58 88 -68 100 -58 67z"/>
<path d="M2482 3720 c0 -14 2 -19 5 -12 2 6 2 18 0 25 -3 6 -5 1 -5 -13z"/>
<path d="M2496 3665 c4 -8 8 -15 10 -15 2 0 4 7 4 15 0 8 -4 15 -10 15 -5 0
-7 -7 -4 -15z"/>
<path d="M2690 3617 c0 -8 7 -17 15 -21 8 -3 15 -2 15 3 0 5 -7 14 -15 21 -12
10 -15 10 -15 -3z"/>
<path d="M2584 3549 c4 -26 24 -61 47 -79 4 -3 6 -16 5 -30 -1 -20 3 -25 22
-23 12 2 22 -2 22 -7 0 -6 11 -20 25 -32 14 -12 25 -28 25 -35 0 -9 7 -12 18
-9 9 3 33 1 52 -4 23 -7 36 -7 38 0 5 15 22 12 22 -5 0 -8 9 -19 19 -25 27
-14 31 -13 31 10 0 11 -4 20 -9 20 -8 0 -61 71 -61 82 0 3 14 -7 31 -23 17
-16 35 -26 41 -23 5 3 16 -3 24 -15 8 -12 24 -21 35 -21 10 0 19 -6 19 -14 0
-14 116 -43 128 -32 6 7 10 4 -53 36 -27 14 -63 39 -79 55 -17 17 -36 29 -43
27 -7 -2 -13 2 -13 9 0 7 -9 9 -24 5 -19 -5 -32 1 -56 26 -30 31 -31 32 -24 8
6 -22 5 -23 -10 -11 -9 7 -16 22 -16 31 0 10 -12 28 -26 39 -14 11 -23 24 -20
29 2 4 1 14 -4 22 -7 11 -11 10 -25 -4 -13 -13 -20 -14 -31 -5 -11 9 -15 8
-20 -5 -5 -14 -9 -15 -23 -4 -19 16 -59 38 -66 38 -4 0 -4 -14 -1 -31z"/>
<path d="M2860 3509 c0 -31 33 -77 58 -82 15 -3 28 -4 29 -4 1 1 -14 20 -33
41 -19 21 -34 42 -34 47 0 5 -4 9 -10 9 -5 0 -10 -5 -10 -11z"/>
<path d="M2395 3471 c-101 -41 -196 -121 -235 -197 -45 -89 -205 -265 -294
-323 -13 -9 -34 -28 -45 -42 -14 -18 -33 -28 -60 -32 -49 -6 -123 -41 -172
-80 -20 -16 -45 -27 -55 -26 -19 3 -84 -21 -114 -41 -37 -25 -91 -50 -106 -50
-9 0 -51 -18 -94 -41 -60 -31 -102 -64 -174 -136 -53 -53 -96 -101 -96 -108 0
-7 -7 -18 -16 -26 -8 -7 -13 -21 -11 -30 3 -11 -15 -47 -44 -89 -26 -39 -51
-87 -55 -108 -3 -20 -26 -118 -51 -217 -54 -217 -76 -322 -92 -435 -7 -47 -20
-119 -29 -160 -18 -86 -18 -87 -26 -200 -4 -47 -11 -112 -16 -145 -19 -132
-46 -891 -33 -957 l6 -28 1196 0 1196 0 4 133 c12 426 1 528 -79 727 -26 65
-80 240 -100 325 -6 22 -16 65 -25 95 -8 30 -24 96 -35 145 -12 50 -26 110
-32 135 -6 25 -15 50 -20 57 -6 7 -7 17 -3 23 6 10 -8 67 -26 102 -5 10 -9 27
-9 39 0 12 -13 72 -29 133 -16 61 -34 138 -41 171 -6 33 -17 78 -25 100 -7 22
-20 74 -30 115 -35 159 -85 334 -125 445 -41 113 -90 278 -90 304 0 32 19 52
47 52 55 -1 68 -7 71 -31 2 -13 10 -29 17 -35 7 -5 16 -23 19 -39 7 -30 22
-25 27 9 4 27 -10 378 -17 438 -7 53 -13 55 -79 28z m-25 -316 c0 -2 -13 -11
-30 -20 -26 -13 -30 -13 -30 -1 0 8 6 17 13 19 16 7 47 8 47 2z m465 -2507
c14 -22 14 -24 -6 -32 -16 -8 -23 -6 -30 7 -6 9 -19 17 -29 17 -11 0 -20 4
-20 8 0 31 63 30 85 0z"/>
<path d="M3546 3302 c-3 -5 -11 -63 -17 -129 l-12 -119 37 -67 c21 -37 41 -67
46 -67 4 0 12 -12 18 -27 21 -60 95 -250 107 -278 13 -28 36 -126 41 -170 2
-22 23 -98 79 -285 20 -69 41 -138 45 -155 5 -16 13 -46 19 -65 5 -19 16 -60
25 -90 58 -203 94 -384 106 -525 6 -60 14 -153 20 -205 9 -80 5 -726 -5 -830
-1 -14 -5 -68 -9 -120 -4 -52 -9 -112 -12 -132 l-4 -38 570 0 570 0 1 33 c2
61 -2 112 -16 192 -7 44 -13 107 -14 140 -1 34 -8 113 -17 175 -19 142 -32
257 -39 335 -3 33 -12 94 -20 135 -8 41 -17 100 -20 130 -4 46 -25 173 -62
378 -7 40 -19 41 -28 2 -4 -16 -11 -32 -15 -35 -5 -3 -3 16 5 42 8 27 18 115
21 198 6 129 3 167 -16 275 -24 137 -24 139 -35 225 -14 122 -37 173 -111 254
-33 35 -80 87 -106 115 -25 28 -50 48 -54 44 -4 -4 4 -16 17 -27 13 -11 19
-20 13 -21 -12 0 -51 39 -55 55 -2 6 -7 15 -11 20 -5 6 -15 19 -22 29 -7 11
-22 20 -32 21 -10 0 -46 17 -79 36 -47 27 -324 129 -352 129 -4 0 2 -9 12 -20
18 -20 18 -20 -14 -4 -22 11 -29 19 -21 24 9 6 9 9 0 15 -6 4 -17 2 -22 -3 -8
-8 -20 -4 -40 13 -16 14 -40 25 -53 25 -13 0 -28 6 -32 13 -10 17 -134 94
-158 98 -10 2 -33 27 -50 55 -47 79 -188 224 -199 206z m274 -297 c0 -8 4 -15
9 -15 5 0 11 -9 14 -20 4 -16 2 -18 -13 -10 -26 14 -41 60 -20 60 6 0 10 -7
10 -15z m50 -102 c0 -13 -3 -13 -15 -3 -8 7 -12 16 -9 21 8 13 24 1 24 -18z
m846 -360 c-7 -7 -26 7 -26 19 0 6 6 6 15 -2 9 -7 13 -15 11 -17z"/>
<path d="M3020 3260 c0 -5 5 -10 10 -10 6 0 10 5 10 10 0 6 -4 10 -10 10 -5 0
-10 -4 -10 -10z"/>
</g>
</svg>
