<svg xmlns="http://www.w3.org/2000/svg" viewBox="0 0 152.3 55"><title>logo</title><g style="isolation:isolate"><path d="M6.5,3.3h7.3V11h6.5V3.3h7.3V25.2H20.3V17.5H13.8v7.7H6.5Z" transform="translate(-6.5 -3.3)" fill="#666"/><path d="M34.4,24.6a8.1,8.1,0,0,1-3.5-2.8,8.29,8.29,0,0,1-1.2-4.6A8.46,8.46,0,0,1,32,11a9,9,0,0,1,6.6-2.3,9.8,9.8,0,0,1,6.4,2,6.78,6.78,0,0,1,2.3,5.6v2.8H36.4a3,3,0,0,0,1.7,1.4,9.54,9.54,0,0,0,3.3.5,13.33,13.33,0,0,0,2.8-.3c.9-.2,1.7-.4,2.3-.6v4.1a16,16,0,0,1-7,1.2A11.42,11.42,0,0,1,34.4,24.6Zm6.7-9.2V15a2.11,2.11,0,0,0-.5-1.3,2.65,2.65,0,0,0-1.7-.5,2.55,2.55,0,0,0-1.9.6,2.11,2.11,0,0,0-.6,1.6Z" transform="translate(-6.5 -3.3)" fill="#666"/><path d="M52,31a6,6,0,0,1-1.9-.6V25.6a6,6,0,0,0,2,.3,5,5,0,0,0,1.9-.3,3.54,3.54,0,0,0,1.2-1L47.8,9.1h7.6l3.3,8.8,3.2-8.8h7.6L63.8,23.5a14.46,14.46,0,0,1-3.7,5.7,8.16,8.16,0,0,1-5.6,2A15.74,15.74,0,0,1,52,31Z" transform="translate(-6.5 -3.3)" fill="#666"/><path d="M69.2,21.2h6.1l-2.1,8.1H68Z" transform="translate(-6.5 -3.3)" fill="#666"/></g><g style="isolation:isolate"><path d="M6.5,30.3h7l5,10.1,4.9-10.1h7V52.2H23.1V42.9l-2.7,5.6H16.6l-2.7-5.6v9.3H6.5Z" transform="translate(-6.5 -3.3)" fill="#666"/><path d="M33,51.2a4.8,4.8,0,0,1-1.6-4,4.85,4.85,0,0,1,1.7-4,8.28,8.28,0,0,1,5.2-1.4h3.9v-.2c0-.9-1.1-1.4-3.2-1.4-.9,0-1.8.1-2.8.2a23,23,0,0,0-2.8.6V36.9a11.19,11.19,0,0,1,3.2-.9,25.31,25.31,0,0,1,3.8-.3,10.82,10.82,0,0,1,6.4,1.7,5.87,5.87,0,0,1,2.3,5v9.8H42.7L42.5,51a8.28,8.28,0,0,1-5.4,1.6A7,7,0,0,1,33,51.2Zm9.2-3.8V45.7H39.9a2.65,2.65,0,0,0-1.4.3,1.25,1.25,0,0,0-.4,1.1c0,.9.5,1.4,1.6,1.4A3.44,3.44,0,0,0,42.2,47.4Z" transform="translate(-6.5 -3.3)" fill="#666"/></g><g style="isolation:isolate"><path d="M52.9,58a12.2,12.2,0,0,1-3.3-.6V53a20.87,20.87,0,0,0,3.3.7c1.3.1,2.6.2,3.8.2,2.4,0,3.6-.2,3.6-.7,0-.2-.1-.3-.3-.4a3.45,3.45,0,0,0-1.2-.1h-4c-3.6,0-5.4-1.1-5.4-3.2a2.64,2.64,0,0,1,.7-1.9A3.68,3.68,0,0,1,52,46.4a5.06,5.06,0,0,1-2-1.8,5.4,5.4,0,0,1-.6-2.7,5.07,5.07,0,0,1,2.2-4.6,11.29,11.29,0,0,1,6.3-1.5,13.43,13.43,0,0,1,1.9.1,14.93,14.93,0,0,0,1.7.2H68l-.1,4.4h-2a2.41,2.41,0,0,1,.4,1.5,5.3,5.3,0,0,1-1.4,3.9,6.37,6.37,0,0,1-4.5,1.4c-.1,0-.7,0-1.8-.1-1,.1-1.5.4-1.5.8,0,.2.1.3.3.4a1.72,1.72,0,0,0,.8.1h3.3a6.16,6.16,0,0,1,4,1.2A4.06,4.06,0,0,1,67,53.1a4.3,4.3,0,0,1-2.3,3.8,14.57,14.57,0,0,1-7.1,1.4C55.8,58.2,54.3,58.1,52.9,58Zm6.6-15.1a2.21,2.21,0,0,0,0-2.8,2.36,2.36,0,0,0-1.6-.4,2.67,2.67,0,0,0-1.7.4,2,2,0,0,0-.5,1.4,1.58,1.58,0,0,0,.5,1.3,2.5,2.5,0,0,0,1.7.4A1.94,1.94,0,0,0,59.5,42.9Z" transform="translate(-6.5 -3.3)" fill="#666"/></g><g style="isolation:isolate"><path d="M68.7,36.1h7.1l.2,1.1a11.82,11.82,0,0,1,2.5-1,15.67,15.67,0,0,1,3-.5v5.4c-.9,0-1.9.2-2.9.3a18.53,18.53,0,0,0-2.5.6V52.1H68.8v-16Z" transform="translate(-6.5 -3.3)" fill="#666"/><path d="M83.4,50.9a6.57,6.57,0,0,1-1.6-4.6V36.1h7.3v9.5a1.41,1.41,0,0,0,1.6,1.6,2.28,2.28,0,0,0,1.1-.3,8.79,8.79,0,0,0,1-.6V36.1h7.3V52.2H93.2L93,51.1a7,7,0,0,1-2.3,1,13.61,13.61,0,0,1-3,.4A5.58,5.58,0,0,1,83.4,50.9Z" transform="translate(-6.5 -3.3)" fill="#666"/><path d="M102.2,44.6a10.73,10.73,0,0,1,1.1-4.9,7.54,7.54,0,0,1,6.9-4,13.55,13.55,0,0,1,2,.2,4.92,4.92,0,0,1,1.7.6V29.3h7.3V52.2h-6.3l-.3-1.2a7.09,7.09,0,0,1-2.1,1.1,9.47,9.47,0,0,1-2.6.4C104.7,52.5,102.2,49.9,102.2,44.6Zm11.6,2V41.7a2.72,2.72,0,0,0-2-.7,1.85,1.85,0,0,0-1.7.9,5,5,0,0,0-.5,2.7,6.53,6.53,0,0,0,.2,1.7,1.2,1.2,0,0,0,.7.7,3.92,3.92,0,0,0,1.3.2A2.32,2.32,0,0,0,113.8,46.6Z" transform="translate(-6.5 -3.3)" fill="#666"/><path d="M127.9,51.6a8.1,8.1,0,0,1-3.5-2.8,8.29,8.29,0,0,1-1.2-4.6,8.46,8.46,0,0,1,2.3-6.2,9,9,0,0,1,6.6-2.3,9.8,9.8,0,0,1,6.4,2,6.91,6.91,0,0,1,2.3,5.6v2.8H129.9a2.73,2.73,0,0,0,1.7,1.4,9.54,9.54,0,0,0,3.3.5,13.33,13.33,0,0,0,2.8-.3c.9-.2,1.7-.4,2.3-.6v4.1a16,16,0,0,1-7,1.2A11.91,11.91,0,0,1,127.9,51.6Zm6.7-9.2V42a2.11,2.11,0,0,0-.5-1.3,2.65,2.65,0,0,0-1.7-.5,2.55,2.55,0,0,0-1.9.6,2.11,2.11,0,0,0-.6,1.6Z" transform="translate(-6.5 -3.3)" fill="#666"/><path d="M142.9,36.1H150l.2,1.1a11.82,11.82,0,0,1,2.5-1,15.67,15.67,0,0,1,3-.5v5.4c-.9,0-1.9.2-2.9.3a18.53,18.53,0,0,0-2.5.6V52.1H143v-16Z" transform="translate(-6.5 -3.3)" fill="#666"/><path d="M153.1,47h5.7v5.2h-5.7Z" transform="translate(-6.5 -3.3)" fill="#666"/></g></svg>