<?xml version="1.0" encoding="utf-8"?>
<!-- Generator: Adobe Illustrator 22.1.0, SVG Export Plug-In . SVG Version: 6.00 Build 0)  -->
<svg version="1.1" id="Layer_1" xmlns="http://www.w3.org/2000/svg" xmlns:xlink="http://www.w3.org/1999/xlink" x="0px" y="0px"
	 viewBox="0 0 33.4 31.1" style="enable-background:new 0 0 33.4 31.1;" xml:space="preserve">
<style type="text/css">
	.st0{fill:#41802C;}
	.st1{fill:#FFFFFF;}
	.st2{fill:url(#SVGID_1_);}
	.st3{fill:url(#SVGID_2_);}
	.st4{fill:#346F35;}
	.st5{fill:#4C8C3F;}
	.st6{fill:#5FA83D;}
	.st7{fill:#487629;}
</style>
<g>
	<path class="st0" d="M2.3,25.7c-0.1,0-0.1,0-0.1-0.1c0,0-0.1,0-0.1-0.1c0,0,0-0.1-0.1-0.1c0,0,0-0.1,0-0.2c0-0.1,0-0.1,0-0.2
		C2,25,2,24.9,2.1,24.9c0,0,0.1-0.1,0.2-0.1c0.1,0,0.1,0,0.2,0c0.1,0,0.1,0,0.2,0c0.1,0,0.1,0,0.2,0.1c0,0.1,0,0.2-0.1,0.3
		c0,0,0,0-0.1,0c0,0,0,0-0.1,0c0,0-0.1,0-0.1,0c0,0-0.1,0-0.1,0c0,0-0.1,0-0.1,0c0,0,0,0-0.1,0c0,0,0,0-0.1,0.1c0,0,0,0.1,0,0.1
		c0,0,0,0.1,0,0.1c0,0,0,0,0,0.1c0,0,0,0,0.1,0c0,0,0,0,0.1,0l0.1,0.1c0.1,0,0.1,0,0.2,0.1c0,0,0.1,0.1,0.1,0.1s0.1,0.1,0.1,0.1
		c0,0,0,0.1,0,0.2c0,0.1,0,0.1,0,0.2c0,0.1-0.1,0.1-0.1,0.2c-0.1,0-0.1,0.1-0.2,0.1c-0.1,0-0.2,0-0.3,0c0,0-0.1,0-0.1,0
		c0,0-0.1,0-0.1,0c0,0-0.1,0-0.1,0c0,0-0.1,0-0.1,0c0,0,0-0.1,0-0.1c0,0,0-0.1,0-0.1c0.1,0,0.1,0,0.2,0.1c0.1,0,0.1,0,0.2,0
		c0.1,0,0.2,0,0.2-0.1c0.1,0,0.1-0.1,0.1-0.2c0,0,0-0.1,0-0.1c0,0,0,0,0-0.1c0,0,0,0-0.1,0c0,0-0.1,0-0.1,0L2.3,25.7z"/>
	<path class="st0" d="M3.3,24.8c0.1,0,0.1,0,0.2,0s0.1,0,0.2,0v1.6c-0.1,0-0.1,0-0.2,0c-0.1,0-0.1,0-0.2,0V24.8z"/>
	<path class="st0" d="M4.1,24.8c0.1,0,0.1,0,0.2,0c0.1,0,0.1,0,0.2,0l0.4,0.9l0.4-0.9c0,0,0.1,0,0.2,0c0.1,0,0.1,0,0.2,0l0.1,1.6
		c-0.1,0-0.1,0-0.2,0c0,0-0.1,0-0.1,0l0-1.1l-0.3,0.7c0,0,0,0-0.1,0c0,0,0,0-0.1,0c0,0,0,0-0.1,0c0,0,0,0-0.1,0l-0.3-0.8l0,1.1
		c0,0-0.1,0-0.1,0c0,0-0.1,0-0.1,0L4.1,24.8z"/>
	<path class="st0" d="M5.9,24.8c0.1,0,0.1,0,0.2,0c0.1,0,0.1,0,0.2,0c0.1,0,0.1,0,0.2,0c0.1,0,0.1,0,0.2,0.1c0.1,0,0.1,0.1,0.1,0.2
		C7,25.1,7,25.2,7,25.3c0,0.1,0,0.2-0.1,0.3c0,0.1-0.1,0.1-0.1,0.2c-0.1,0-0.1,0.1-0.2,0.1c-0.1,0-0.1,0-0.2,0c0,0,0,0-0.1,0
		c0,0,0,0,0,0v0.5c0,0-0.1,0-0.1,0c0,0-0.1,0-0.1,0c0,0,0,0-0.1,0c0,0-0.1,0-0.1,0V24.8z M6.2,25.6C6.3,25.6,6.3,25.6,6.2,25.6
		c0.1,0,0.1,0,0.1,0c0,0,0.1,0,0.1,0c0,0,0.1,0,0.1,0c0,0,0-0.1,0.1-0.1s0-0.1,0-0.1c0-0.1,0-0.1,0-0.1c0,0,0-0.1-0.1-0.1
		c0,0-0.1,0-0.1,0c0,0-0.1,0-0.1,0c0,0,0,0,0,0c0,0,0,0-0.1,0V25.6z"/>
	<path class="st0" d="M7.3,24.8c0.1,0,0.1,0,0.2,0c0.1,0,0.1,0,0.2,0v1.3h0.5c0,0,0,0,0,0.1c0,0,0,0,0,0.1c0,0,0,0,0,0.1
		c0,0,0,0,0,0.1H7.3V24.8z"/>
	<path class="st0" d="M8.5,24.8h0.9c0,0,0,0.1,0,0.1c0,0,0,0.1,0,0.1H8.8v0.3h0.5c0,0,0,0.1,0,0.1c0,0,0,0.1,0,0.1H8.8v0.4h0.6
		c0,0,0,0.1,0,0.1c0,0,0,0.1,0,0.1H8.5V24.8z"/>
	<path class="st0" d="M10.4,24.8c0.1,0,0.1,0,0.2,0c0.1,0,0.1,0,0.2,0v0.6h0.5v-0.6c0.1,0,0.1,0,0.2,0c0.1,0,0.1,0,0.2,0v1.6
		c-0.1,0-0.1,0-0.2,0c-0.1,0-0.1,0-0.2,0v-0.7h-0.5v0.7c-0.1,0-0.1,0-0.2,0c-0.1,0-0.1,0-0.2,0V24.8z"/>
	<path class="st0" d="M12.6,26.4c-0.1,0-0.2,0-0.3-0.1c-0.1,0-0.2-0.1-0.2-0.2C12,26.1,12,26,12,25.9c0-0.1,0-0.2,0-0.3
		c0-0.1,0-0.2,0-0.3c0-0.1,0.1-0.2,0.1-0.3c0.1-0.1,0.1-0.1,0.2-0.2c0.1,0,0.2-0.1,0.3-0.1c0.1,0,0.2,0,0.3,0.1
		c0.1,0,0.2,0.1,0.2,0.2c0.1,0.1,0.1,0.2,0.1,0.3c0,0.1,0,0.2,0,0.3c0,0.1,0,0.2,0,0.3c0,0.1-0.1,0.2-0.1,0.3
		c-0.1,0.1-0.1,0.1-0.2,0.2C12.8,26.4,12.7,26.4,12.6,26.4z M12.6,26.1c0.2,0,0.3-0.2,0.3-0.5c0-0.2,0-0.3-0.1-0.4
		c-0.1-0.1-0.1-0.1-0.3-0.1c-0.2,0-0.3,0.2-0.3,0.5C12.3,26,12.4,26.1,12.6,26.1z"/>
	<path class="st0" d="M13.7,24.8c0.1,0,0.1,0,0.2,0c0.1,0,0.1,0,0.2,0l0.4,0.9l0.4-0.9c0,0,0.1,0,0.2,0c0.1,0,0.1,0,0.2,0l0.1,1.6
		c-0.1,0-0.1,0-0.2,0c0,0-0.1,0-0.1,0l0-1.1l-0.3,0.7c0,0,0,0-0.1,0c0,0,0,0-0.1,0c0,0,0,0-0.1,0c0,0,0,0-0.1,0L14,25.3l0,1.1
		c0,0-0.1,0-0.1,0c0,0-0.1,0-0.1,0L13.7,24.8z"/>
	<path class="st0" d="M15.6,24.8h0.9c0,0,0,0.1,0,0.1c0,0,0,0.1,0,0.1h-0.6v0.3h0.5c0,0,0,0.1,0,0.1c0,0,0,0.1,0,0.1h-0.5v0.4h0.6
		c0,0,0,0.1,0,0.1c0,0,0,0.1,0,0.1h-0.9V24.8z"/>
	<path class="st0" d="M16.9,24.8c0.1,0,0.1,0,0.2,0c0.1,0,0.1,0,0.2,0l0.4,0.9l0.4-0.9c0,0,0.1,0,0.2,0c0.1,0,0.1,0,0.2,0l0.1,1.6
		c-0.1,0-0.1,0-0.2,0c0,0-0.1,0-0.1,0l0-1.1l-0.3,0.7c0,0,0,0-0.1,0c0,0,0,0-0.1,0c0,0,0,0-0.1,0c0,0,0,0-0.1,0l-0.3-0.8l0,1.1
		c0,0-0.1,0-0.1,0c0,0-0.1,0-0.1,0L16.9,24.8z"/>
	<path class="st0" d="M19.1,24.8C19.2,24.8,19.2,24.8,19.1,24.8c0.1,0,0.1,0,0.2,0c0,0,0.1,0,0.1,0c0,0,0.1,0,0.1,0l0.5,1.6
		c-0.1,0-0.1,0-0.2,0c-0.1,0-0.1,0-0.2,0l-0.1-0.3H19l-0.1,0.3c-0.1,0-0.1,0-0.2,0c-0.1,0-0.1,0-0.2,0L19.1,24.8z M19.5,25.8
		l-0.2-0.7l-0.2,0.7H19.5z"/>
	<path class="st0" d="M20.3,24.8c0.1,0,0.1,0,0.2,0c0.1,0,0.1,0,0.2,0c0.3,0,0.5,0.1,0.6,0.2c0.1,0.1,0.2,0.3,0.2,0.6
		c0,0.3-0.1,0.5-0.2,0.6c-0.1,0.1-0.4,0.2-0.7,0.2c-0.1,0-0.1,0-0.2,0c-0.1,0-0.1,0-0.2,0V24.8z M20.6,26.1
		C20.6,26.1,20.6,26.1,20.6,26.1c0.1,0,0.1,0,0.1,0c0.1,0,0.1,0,0.2,0c0.1,0,0.1,0,0.2-0.1c0,0,0.1-0.1,0.1-0.2c0-0.1,0-0.2,0-0.3
		c0-0.1,0-0.2,0-0.3c0-0.1-0.1-0.1-0.1-0.2c0,0-0.1-0.1-0.1-0.1c-0.1,0-0.1,0-0.2,0c0,0,0,0-0.1,0c0,0-0.1,0-0.1,0V26.1z"/>
	<path class="st0" d="M21.9,24.8h0.9c0,0,0,0.1,0,0.1c0,0,0,0.1,0,0.1h-0.6v0.3h0.5c0,0,0,0.1,0,0.1c0,0,0,0.1,0,0.1h-0.5v0.4h0.6
		c0,0,0,0.1,0,0.1c0,0,0,0.1,0,0.1h-0.9V24.8z"/>
	<path class="st0" d="M23.8,24.8h0.9c0,0,0,0.1,0,0.1c0,0,0,0.1,0,0.1h-0.6v0.4h0.5c0,0,0,0.1,0,0.1c0,0,0,0.1,0,0.1h-0.5v0.7
		c-0.1,0-0.1,0-0.2,0c-0.1,0-0.1,0-0.2,0V24.8z"/>
	<path class="st0" d="M25.7,26.4c-0.1,0-0.2,0-0.3-0.1c-0.1,0-0.2-0.1-0.2-0.2C25.1,26.1,25,26,25,25.9c0-0.1,0-0.2,0-0.3
		c0-0.1,0-0.2,0-0.3c0-0.1,0.1-0.2,0.1-0.3c0.1-0.1,0.1-0.1,0.2-0.2c0.1,0,0.2-0.1,0.3-0.1s0.2,0,0.3,0.1c0.1,0,0.2,0.1,0.2,0.2
		c0.1,0.1,0.1,0.2,0.1,0.3c0,0.1,0,0.2,0,0.3c0,0.1,0,0.2,0,0.3c0,0.1-0.1,0.2-0.1,0.3c-0.1,0.1-0.1,0.1-0.2,0.2
		C25.9,26.4,25.8,26.4,25.7,26.4z M25.7,26.1c0.2,0,0.3-0.2,0.3-0.5c0-0.2,0-0.3-0.1-0.4c-0.1-0.1-0.1-0.1-0.3-0.1
		c-0.2,0-0.3,0.2-0.3,0.5C25.3,26,25.4,26.1,25.7,26.1z"/>
	<path class="st0" d="M27.4,26.4c-0.1,0-0.2,0-0.3-0.1c-0.1,0-0.2-0.1-0.2-0.2c-0.1-0.1-0.1-0.2-0.1-0.3c0-0.1,0-0.2,0-0.3
		c0-0.1,0-0.2,0-0.3c0-0.1,0.1-0.2,0.1-0.3c0.1-0.1,0.1-0.1,0.2-0.2c0.1,0,0.2-0.1,0.3-0.1s0.2,0,0.3,0.1c0.1,0,0.2,0.1,0.2,0.2
		c0.1,0.1,0.1,0.2,0.1,0.3c0,0.1,0,0.2,0,0.3c0,0.1,0,0.2,0,0.3c0,0.1-0.1,0.2-0.1,0.3c-0.1,0.1-0.1,0.1-0.2,0.2
		C27.6,26.4,27.5,26.4,27.4,26.4z M27.4,26.1c0.2,0,0.3-0.2,0.3-0.5c0-0.2,0-0.3-0.1-0.4c-0.1-0.1-0.1-0.1-0.3-0.1
		c-0.2,0-0.3,0.2-0.3,0.5C27,26,27.1,26.1,27.4,26.1z"/>
	<path class="st0" d="M28.4,24.8c0.1,0,0.1,0,0.2,0c0.1,0,0.1,0,0.2,0c0.3,0,0.5,0.1,0.6,0.2s0.2,0.3,0.2,0.6c0,0.3-0.1,0.5-0.2,0.6
		c-0.1,0.1-0.4,0.2-0.7,0.2c-0.1,0-0.1,0-0.2,0c-0.1,0-0.1,0-0.2,0V24.8z M28.8,26.1C28.8,26.1,28.8,26.1,28.8,26.1
		c0.1,0,0.1,0,0.1,0c0.1,0,0.1,0,0.2,0c0.1,0,0.1,0,0.2-0.1c0,0,0.1-0.1,0.1-0.2c0-0.1,0-0.2,0-0.3c0-0.1,0-0.2,0-0.3
		c0-0.1-0.1-0.1-0.1-0.2c0,0-0.1-0.1-0.1-0.1c-0.1,0-0.1,0-0.2,0c0,0,0,0-0.1,0c0,0-0.1,0-0.1,0V26.1z"/>
	<path class="st0" d="M30.4,25.7c0,0-0.1,0-0.1-0.1c0,0-0.1,0-0.1-0.1c0,0,0-0.1-0.1-0.1c0,0,0-0.1,0-0.2c0-0.1,0-0.1,0-0.2
		c0-0.1,0.1-0.1,0.1-0.1s0.1-0.1,0.2-0.1c0.1,0,0.1,0,0.2,0c0.1,0,0.1,0,0.2,0c0.1,0,0.1,0,0.2,0.1c0,0.1,0,0.2-0.1,0.3
		c0,0,0,0-0.1,0c0,0,0,0-0.1,0c0,0-0.1,0-0.1,0c0,0-0.1,0-0.1,0c0,0-0.1,0-0.1,0c0,0,0,0-0.1,0c0,0,0,0-0.1,0.1c0,0,0,0.1,0,0.1
		c0,0,0,0.1,0,0.1c0,0,0,0,0,0.1c0,0,0,0,0.1,0c0,0,0,0,0.1,0l0.1,0.1c0.1,0,0.1,0,0.2,0.1c0,0,0.1,0.1,0.1,0.1s0.1,0.1,0.1,0.1
		c0,0,0,0.1,0,0.2c0,0.1,0,0.1,0,0.2c0,0.1-0.1,0.1-0.1,0.2c-0.1,0-0.1,0.1-0.2,0.1c-0.1,0-0.2,0-0.3,0c0,0-0.1,0-0.1,0
		c0,0-0.1,0-0.1,0c0,0-0.1,0-0.1,0c0,0-0.1,0-0.1,0c0,0,0-0.1,0-0.1c0,0,0-0.1,0-0.1c0.1,0,0.1,0,0.2,0.1c0.1,0,0.1,0,0.2,0
		c0.1,0,0.2,0,0.2-0.1c0.1,0,0.1-0.1,0.1-0.2c0,0,0-0.1,0-0.1c0,0,0,0,0-0.1c0,0,0,0-0.1,0c0,0-0.1,0-0.1,0L30.4,25.7z"/>
	<path class="st0" d="M10.9,28.2c-0.1,0-0.1,0-0.1-0.1c0,0-0.1,0-0.1-0.1c0,0,0-0.1-0.1-0.1c0,0,0-0.1,0-0.2c0-0.1,0-0.1,0-0.2
		c0-0.1,0.1-0.1,0.1-0.1c0,0,0.1-0.1,0.2-0.1c0.1,0,0.1,0,0.2,0c0.1,0,0.1,0,0.2,0c0.1,0,0.1,0,0.2,0.1c0,0.1,0,0.2-0.1,0.3
		c0,0,0,0-0.1,0c0,0,0,0-0.1,0c0,0-0.1,0-0.1,0c0,0-0.1,0-0.1,0c0,0-0.1,0-0.1,0c0,0,0,0-0.1,0c0,0,0,0-0.1,0.1c0,0,0,0.1,0,0.1
		c0,0,0,0.1,0,0.1c0,0,0,0,0,0.1c0,0,0,0,0.1,0c0,0,0,0,0.1,0l0.1,0.1c0.1,0,0.1,0,0.2,0.1c0,0,0.1,0.1,0.1,0.1c0,0,0.1,0.1,0.1,0.1
		c0,0,0,0.1,0,0.2c0,0.1,0,0.1,0,0.2c0,0.1-0.1,0.1-0.1,0.2s-0.1,0.1-0.2,0.1c-0.1,0-0.2,0-0.3,0c0,0-0.1,0-0.1,0c0,0-0.1,0-0.1,0
		c0,0-0.1,0-0.1,0c0,0-0.1,0-0.1,0c0,0,0-0.1,0-0.1c0,0,0-0.1,0-0.1c0.1,0,0.1,0,0.2,0.1c0.1,0,0.1,0,0.2,0c0.1,0,0.2,0,0.2-0.1
		c0.1,0,0.1-0.1,0.1-0.2c0,0,0-0.1,0-0.1c0,0,0,0,0-0.1c0,0,0,0-0.1,0c0,0-0.1,0-0.1,0L10.9,28.2z"/>
	<path class="st0" d="M12,27.3c0.1,0,0.1,0,0.2,0s0.1,0,0.2,0v1.6c-0.1,0-0.1,0-0.2,0c-0.1,0-0.1,0-0.2,0V27.3z"/>
	<path class="st0" d="M12.7,27.3c0,0,0.1,0,0.1,0c0,0,0.1,0,0.1,0l0.6,1v-1c0.1,0,0.1,0,0.2,0c0,0,0.1,0,0.1,0v1.6c0,0-0.1,0-0.1,0
		c0,0-0.1,0-0.1,0l-0.6-1v1c0,0-0.1,0-0.1,0c0,0-0.1,0-0.1,0V27.3z"/>
	<path class="st0" d="M15.3,28.6c0,0,0,0.1,0,0.1c0,0,0,0.1,0,0.1c-0.1,0-0.1,0-0.2,0.1c-0.1,0-0.1,0-0.2,0c-0.1,0-0.2,0-0.3-0.1
		c-0.1,0-0.2-0.1-0.2-0.2c-0.1-0.1-0.1-0.2-0.1-0.3c0-0.1,0-0.2,0-0.3s0-0.2,0.1-0.3c0-0.1,0.1-0.2,0.1-0.3c0.1-0.1,0.1-0.1,0.2-0.2
		c0.1,0,0.2-0.1,0.3-0.1c0.1,0,0.1,0,0.2,0c0.1,0,0.1,0,0.2,0.1c0,0,0,0.1,0,0.1c0,0,0,0.1,0,0.1c-0.1,0-0.1,0-0.1,0
		c0,0-0.1,0-0.1,0c-0.1,0-0.2,0-0.3,0.1c-0.1,0.1-0.1,0.2-0.1,0.4c0,0.4,0.2,0.5,0.5,0.5c0.1,0,0.1,0,0.1,0
		C15.2,28.7,15.3,28.6,15.3,28.6z"/>
	<path class="st0" d="M15.7,27.3h0.9c0,0,0,0.1,0,0.1c0,0,0,0.1,0,0.1h-0.6V28h0.5c0,0,0,0.1,0,0.1c0,0,0,0.1,0,0.1h-0.5v0.4h0.6
		c0,0,0,0.1,0,0.1c0,0,0,0.1,0,0.1h-0.9V27.3z"/>
	<path class="st0" d="M18,28.7v-0.8L17.8,28c0,0-0.1-0.1-0.1-0.1c0,0,0-0.1,0-0.1l0.6-0.3h0.1v1.2h0.3c0,0,0,0,0,0.1c0,0,0,0,0,0.1
		c0,0,0,0,0,0.1c0,0,0,0,0,0.1h-0.9c0,0,0,0,0-0.1c0,0,0,0,0-0.1c0,0,0,0,0-0.1c0,0,0,0,0-0.1H18z"/>
	<path class="st0" d="M19.2,29.1C19.2,29.1,19.2,29,19.2,29.1c0-0.1,0-0.1,0-0.1c0,0,0-0.1,0-0.1c0.1,0,0.2,0,0.2,0
		c0.1,0,0.1-0.1,0.2-0.1c0,0,0.1-0.1,0.1-0.1c0-0.1,0-0.1,0.1-0.2c0,0,0,0,0,0.1c0,0,0,0-0.1,0.1c0,0-0.1,0-0.1,0c0,0-0.1,0-0.1,0
		c-0.1,0-0.1,0-0.2,0c-0.1,0-0.1-0.1-0.2-0.1c0,0-0.1-0.1-0.1-0.2c0-0.1,0-0.1,0-0.2c0-0.1,0-0.2,0-0.2c0-0.1,0.1-0.1,0.1-0.2
		c0.1,0,0.1-0.1,0.2-0.1c0.1,0,0.1,0,0.2,0c0.2,0,0.3,0.1,0.4,0.2c0.1,0.1,0.1,0.3,0.1,0.5c0,0.1,0,0.3-0.1,0.4
		c0,0.1-0.1,0.2-0.2,0.3c-0.1,0.1-0.2,0.2-0.3,0.2C19.5,29.1,19.4,29.1,19.2,29.1z M19.5,28.3c0.1,0,0.1,0,0.2-0.1s0.1-0.1,0.1-0.2
		c0-0.1,0-0.2-0.1-0.2c0,0-0.1-0.1-0.2-0.1c-0.1,0-0.1,0-0.2,0.1c0,0-0.1,0.1-0.1,0.2c0,0.1,0,0.2,0.1,0.2S19.5,28.3,19.5,28.3z"/>
	<path class="st0" d="M20.7,28.1c-0.1,0-0.1-0.1-0.1-0.1s-0.1-0.1-0.1-0.2c0-0.1,0-0.1,0-0.2c0,0,0.1-0.1,0.1-0.1
		c0,0,0.1-0.1,0.2-0.1c0.1,0,0.1,0,0.2,0c0.1,0,0.1,0,0.2,0c0.1,0,0.1,0,0.2,0.1c0,0,0.1,0.1,0.1,0.1s0,0.1,0,0.2
		c0,0.1,0,0.1-0.1,0.2c0,0.1-0.1,0.1-0.1,0.1c0,0,0.1,0,0.1,0.1c0,0,0.1,0.1,0.1,0.1c0,0,0,0.1,0.1,0.1c0,0,0,0.1,0,0.2
		c0,0.1,0,0.1,0,0.2c0,0.1-0.1,0.1-0.1,0.1c-0.1,0-0.1,0.1-0.2,0.1c-0.1,0-0.1,0-0.2,0c-0.1,0-0.1,0-0.2,0c-0.1,0-0.1,0-0.2-0.1
		c-0.1,0-0.1-0.1-0.1-0.1c0-0.1,0-0.1,0-0.2c0-0.1,0-0.1,0-0.2c0,0,0-0.1,0.1-0.1C20.5,28.2,20.6,28.2,20.7,28.1
		C20.6,28.1,20.6,28.1,20.7,28.1z M21,28.2c-0.1,0-0.1,0.1-0.2,0.1c0,0-0.1,0.1-0.1,0.2s0,0.1,0.1,0.2c0,0,0.1,0.1,0.2,0.1
		c0.1,0,0.1,0,0.2-0.1c0,0,0.1-0.1,0.1-0.2c0-0.1,0-0.1-0.1-0.2C21.1,28.3,21,28.2,21,28.2z M21,28c0.1,0,0.1,0,0.1-0.1
		c0,0,0.1-0.1,0.1-0.1c0-0.1,0-0.1,0-0.1c0,0-0.1,0-0.1,0c-0.1,0-0.1,0-0.1,0c0,0,0,0.1,0,0.1c0,0.1,0,0.1,0.1,0.1
		C20.9,27.9,20.9,28,21,28z"/>
	<path class="st0" d="M22.1,29.1C22.1,29.1,22.1,29,22.1,29.1c0-0.1,0-0.1,0-0.1c0,0,0-0.1,0-0.1c0.1,0,0.2,0,0.2,0
		c0.1,0,0.1-0.1,0.2-0.1c0,0,0.1-0.1,0.1-0.1c0-0.1,0-0.1,0.1-0.2c0,0,0,0,0,0.1c0,0,0,0-0.1,0.1c0,0-0.1,0-0.1,0c0,0-0.1,0-0.1,0
		c-0.1,0-0.1,0-0.2,0c-0.1,0-0.1-0.1-0.2-0.1c0,0-0.1-0.1-0.1-0.2c0-0.1,0-0.1,0-0.2c0-0.1,0-0.2,0-0.2c0-0.1,0.1-0.1,0.1-0.2
		c0.1,0,0.1-0.1,0.2-0.1c0.1,0,0.1,0,0.2,0c0.2,0,0.3,0.1,0.4,0.2c0.1,0.1,0.1,0.3,0.1,0.5c0,0.1,0,0.3-0.1,0.4
		c0,0.1-0.1,0.2-0.2,0.3c-0.1,0.1-0.2,0.2-0.3,0.2C22.4,29.1,22.2,29.1,22.1,29.1z M22.4,28.3c0.1,0,0.1,0,0.2-0.1
		c0,0,0.1-0.1,0.1-0.2c0-0.1,0-0.2-0.1-0.2c0,0-0.1-0.1-0.2-0.1c-0.1,0-0.1,0-0.2,0.1c0,0-0.1,0.1-0.1,0.2c0,0.1,0,0.2,0.1,0.2
		S22.3,28.3,22.4,28.3z"/>
</g>
<g>
	<path class="st0" d="M1,23.5c-0.1,0-0.2,0-0.2,0c-0.1,0-0.1,0-0.2,0c-0.1,0-0.1,0-0.2,0c-0.1,0-0.2,0-0.3,0l1.2-3.7
		c0.1,0,0.2,0,0.3,0c0.1,0,0.2,0,0.2,0c0.1,0,0.1,0,0.2,0c0.1,0,0.2,0,0.3,0l1.1,3.7c-0.2,0-0.4,0-0.5,0c-0.1,0-0.1,0-0.2,0
		c-0.1,0-0.1,0-0.2,0l-0.2-0.7c-0.1,0-0.2,0-0.3,0.1c-0.1,0-0.2,0-0.3,0c-0.1,0-0.2,0-0.2,0c-0.1,0-0.2,0-0.3-0.1L1,23.5z M1.7,20.8
		l-0.3,1.3c0.1,0,0.1,0,0.2,0c0.1,0,0.1,0,0.2,0c0.1,0,0.1,0,0.2,0c0.1,0,0.1,0,0.2,0L1.7,20.8z"/>
	<path class="st0" d="M3.9,20.6H3.1c0-0.1,0-0.3,0-0.4c0-0.1,0-0.2,0-0.4h2.7c0,0.1,0,0.1,0,0.2c0,0.1,0,0.1,0,0.2
		c0,0.1,0,0.3,0,0.4H4.8v2.9c-0.2,0-0.3,0-0.5,0c-0.1,0-0.3,0-0.5,0V20.6z"/>
	<path class="st0" d="M5.9,21.7c0-0.3,0-0.5,0.1-0.8c0.1-0.2,0.2-0.4,0.3-0.6c0.1-0.2,0.3-0.3,0.5-0.4c0.2-0.1,0.5-0.1,0.7-0.1
		c0.3,0,0.5,0,0.7,0.1c0.2,0.1,0.4,0.2,0.5,0.4c0.1,0.2,0.2,0.4,0.3,0.6c0.1,0.2,0.1,0.5,0.1,0.8c0,0.3,0,0.5-0.1,0.8
		s-0.2,0.4-0.3,0.6c-0.1,0.2-0.3,0.3-0.5,0.4c-0.2,0.1-0.4,0.1-0.7,0.1c-0.3,0-0.5,0-0.7-0.1c-0.2-0.1-0.4-0.2-0.5-0.4
		c-0.1-0.2-0.2-0.4-0.3-0.6C5.9,22.2,5.9,22,5.9,21.7z M8.2,21.7c0-0.8-0.2-1.1-0.7-1.1c-0.4,0-0.7,0.4-0.7,1.1
		c0,0.4,0.1,0.7,0.2,0.8c0.1,0.2,0.3,0.3,0.5,0.3C8,22.8,8.2,22.4,8.2,21.7z"/>
	<path class="st0" d="M11.1,23.6c-0.3,0-0.5,0-0.7-0.1c-0.2-0.1-0.3-0.2-0.4-0.3s-0.2-0.3-0.2-0.5c0-0.2-0.1-0.4-0.1-0.7v-2.1
		c0.1,0,0.2,0,0.3,0c0.1,0,0.1,0,0.2,0c0.1,0,0.1,0,0.2,0s0.2,0,0.3,0v2c0,0.2,0,0.3,0,0.4c0,0.1,0,0.2,0.1,0.3
		c0,0.1,0.1,0.1,0.2,0.2c0.1,0,0.2,0,0.3,0c0.1,0,0.2,0,0.3,0c0.1,0,0.1-0.1,0.2-0.2c0-0.1,0.1-0.2,0.1-0.3c0-0.1,0-0.3,0-0.4v-2
		c0.1,0,0.2,0,0.3,0c0.1,0,0.1,0,0.2,0c0.1,0,0.1,0,0.2,0s0.2,0,0.3,0v2.1c0,0.3,0,0.5-0.1,0.7c0,0.2-0.1,0.4-0.2,0.5
		c-0.1,0.1-0.3,0.3-0.4,0.3C11.6,23.6,11.4,23.6,11.1,23.6z"/>
	<path class="st0" d="M13.1,19.8c0.2,0,0.3,0,0.5,0c0.1,0,0.3,0,0.5,0c0.2,0,0.4,0,0.6,0.1c0.2,0,0.4,0.1,0.5,0.2
		c0.1,0.1,0.3,0.2,0.4,0.4c0.1,0.2,0.1,0.4,0.1,0.6c0,0.1,0,0.2,0,0.3c0,0.1-0.1,0.2-0.1,0.3c0,0.1-0.1,0.1-0.2,0.2
		c-0.1,0.1-0.1,0.1-0.2,0.2l0.8,1.6c-0.1,0-0.2,0-0.3,0c-0.1,0-0.2,0-0.3,0c-0.1,0-0.1,0-0.2,0c-0.1,0-0.2,0-0.2,0l-0.7-1.7l0,0
		c0,0,0.1-0.1,0.1-0.1c0.1,0,0.1-0.1,0.1-0.2c0-0.1,0.1-0.1,0.1-0.2c0-0.1,0-0.2,0-0.3c0-0.2,0-0.3-0.1-0.4
		c-0.1-0.1-0.2-0.1-0.4-0.1c0,0-0.1,0-0.1,0c0,0,0,0,0,0v3c-0.2,0-0.3,0-0.5,0c-0.1,0-0.3,0-0.5,0V19.8z"/>
	<path class="st0" d="M17.5,19.8h2.2c0,0.1,0,0.1,0,0.2c0,0.1,0,0.1,0,0.2c0,0.1,0,0.3,0,0.4h-1.3v0.6h1c0,0.2,0,0.3,0,0.4
		c0,0.1,0,0.3,0,0.4h-1v1.5c-0.2,0-0.3,0-0.5,0c-0.1,0-0.3,0-0.5,0V19.8z"/>
	<path class="st0" d="M19.9,21.7c0-0.3,0-0.5,0.1-0.8c0.1-0.2,0.2-0.4,0.3-0.6c0.1-0.2,0.3-0.3,0.5-0.4c0.2-0.1,0.5-0.1,0.7-0.1
		c0.3,0,0.5,0,0.7,0.1c0.2,0.1,0.4,0.2,0.5,0.4c0.1,0.2,0.2,0.4,0.3,0.6c0.1,0.2,0.1,0.5,0.1,0.8c0,0.3,0,0.5-0.1,0.8
		s-0.2,0.4-0.3,0.6c-0.1,0.2-0.3,0.3-0.5,0.4c-0.2,0.1-0.4,0.1-0.7,0.1c-0.3,0-0.5,0-0.7-0.1c-0.2-0.1-0.4-0.2-0.5-0.4
		s-0.2-0.4-0.3-0.6S19.9,22,19.9,21.7z M22.2,21.7c0-0.8-0.2-1.1-0.7-1.1c-0.4,0-0.7,0.4-0.7,1.1c0,0.4,0.1,0.7,0.2,0.8
		c0.1,0.2,0.3,0.3,0.5,0.3C22,22.8,22.2,22.4,22.2,21.7z"/>
	<path class="st0" d="M23.6,21.7c0-0.3,0-0.5,0.1-0.8c0.1-0.2,0.2-0.4,0.3-0.6c0.1-0.2,0.3-0.3,0.5-0.4c0.2-0.1,0.5-0.1,0.7-0.1
		s0.5,0,0.7,0.1c0.2,0.1,0.4,0.2,0.5,0.4c0.1,0.2,0.2,0.4,0.3,0.6c0.1,0.2,0.1,0.5,0.1,0.8c0,0.3,0,0.5-0.1,0.8
		c-0.1,0.2-0.2,0.4-0.3,0.6s-0.3,0.3-0.5,0.4c-0.2,0.1-0.4,0.1-0.7,0.1s-0.5,0-0.7-0.1c-0.2-0.1-0.4-0.2-0.5-0.4
		c-0.1-0.2-0.2-0.4-0.3-0.6S23.6,22,23.6,21.7z M25.9,21.7c0-0.8-0.2-1.1-0.7-1.1c-0.5,0-0.7,0.4-0.7,1.1c0,0.4,0.1,0.7,0.2,0.8
		c0.1,0.2,0.3,0.3,0.5,0.3C25.7,22.8,25.9,22.4,25.9,21.7z"/>
	<path class="st0" d="M28.4,19.7c0.7,0,1.2,0.2,1.5,0.5c0.3,0.3,0.5,0.8,0.5,1.5c0,0.7-0.2,1.1-0.5,1.4c-0.3,0.3-0.9,0.5-1.5,0.5
		c-0.2,0-0.3,0-0.5,0s-0.3,0-0.5-0.1v-3.7c0.1,0,0.1,0,0.2,0c0.1,0,0.2,0,0.3,0c0.1,0,0.2,0,0.3,0C28.2,19.8,28.3,19.7,28.4,19.7z
		 M28.3,22.8C28.3,22.8,28.4,22.8,28.3,22.8c0.1,0,0.1,0,0.2,0c0.1,0,0.3,0,0.4,0c0.1,0,0.2-0.1,0.3-0.2c0.1-0.1,0.2-0.2,0.2-0.3
		c0.1-0.1,0.1-0.3,0.1-0.5c0-0.2,0-0.4-0.1-0.5c-0.1-0.1-0.1-0.3-0.2-0.3c-0.1-0.1-0.2-0.1-0.3-0.2c-0.1,0-0.2-0.1-0.4-0.1
		c-0.1,0-0.1,0-0.2,0c0,0-0.1,0-0.1,0V22.8z"/>
	<path class="st0" d="M32.4,21.3c0.1,0.1,0.3,0.1,0.4,0.2c0.1,0.1,0.2,0.1,0.3,0.2c0.1,0.1,0.1,0.2,0.2,0.3c0,0.1,0.1,0.3,0.1,0.4
		c0,0.2,0,0.3-0.1,0.5c-0.1,0.1-0.2,0.3-0.3,0.4c-0.1,0.1-0.3,0.2-0.5,0.2c-0.2,0.1-0.4,0.1-0.6,0.1c-0.2,0-0.4,0-0.6-0.1
		c-0.2,0-0.3-0.1-0.5-0.2c0-0.1,0-0.3,0.1-0.4c0-0.1,0.1-0.3,0.1-0.4c0.3,0.1,0.6,0.2,0.8,0.2c0.2,0,0.3,0,0.4-0.1
		c0.1-0.1,0.1-0.1,0.1-0.3c0-0.1,0-0.1,0-0.1s0-0.1-0.1-0.1c0,0-0.1-0.1-0.1-0.1c0,0-0.1,0-0.1-0.1L31.7,22c-0.1,0-0.2-0.1-0.3-0.2
		c-0.1-0.1-0.2-0.1-0.3-0.2c-0.1-0.1-0.1-0.2-0.2-0.3c0-0.1-0.1-0.2-0.1-0.4c0-0.2,0-0.3,0.1-0.5c0.1-0.1,0.1-0.3,0.3-0.4
		c0.1-0.1,0.2-0.2,0.4-0.2c0.2-0.1,0.3-0.1,0.5-0.1c0.2,0,0.3,0,0.5,0.1c0.2,0,0.3,0.1,0.5,0.2c0,0.1,0,0.2-0.1,0.4
		c0,0.1-0.1,0.3-0.1,0.4c-0.1,0-0.2-0.1-0.3-0.1c-0.1,0-0.3-0.1-0.5-0.1c-0.1,0-0.1,0-0.2,0c-0.1,0-0.1,0-0.1,0c0,0-0.1,0.1-0.1,0.1
		c0,0,0,0.1,0,0.1c0,0.1,0,0.2,0.1,0.2c0.1,0,0.1,0.1,0.2,0.1L32.4,21.3z"/>
</g>
<g>
	<g>
		<path class="st1" d="M16.7,0.5c-5.8,0-10.5,3.7-10.5,8.3S10.9,17,16.7,17s10.5-3.7,10.5-8.3S22.4,0.5,16.7,0.5z"/>
	</g>
	<g>
		<g>
			<ellipse class="st1" cx="16.7" cy="8.8" rx="9.8" ry="7.7"/>
			<g>
				<radialGradient id="SVGID_1_" cx="16.2499" cy="9.5459" r="14.3107" gradientUnits="userSpaceOnUse">
					<stop  offset="0.2308" style="stop-color:#FDEC60"/>
					<stop  offset="0.4451" style="stop-color:#F6933F"/>
					<stop  offset="0.6593" style="stop-color:#EC2224"/>
				</radialGradient>
				<path class="st2" d="M22.2,9.2l4-0.9c0-0.2,0-0.4-0.1-0.6l-7.3,2.1C19.9,9.5,21,9.3,22.2,9.2z"/>
				<radialGradient id="SVGID_2_" cx="16.3654" cy="7.5977" r="13.7055" gradientUnits="userSpaceOnUse">
					<stop  offset="0.2308" style="stop-color:#FDEC60"/>
					<stop  offset="0.4451" style="stop-color:#F6933F"/>
					<stop  offset="0.6593" style="stop-color:#EC2224"/>
				</radialGradient>
				<path class="st3" d="M15.3,10.2l-7.9-3c0.1-0.2,0.1-0.4,0.2-0.6l7.8,3.4L8,5.7c0.1-0.2,0.2-0.4,0.3-0.5l7.2,4.7L8.9,4.4
					c0.1-0.2,0.3-0.3,0.4-0.4l6.2,5.8l-5.4-6.5c0.2-0.1,0.4-0.2,0.5-0.4l5,6.7l-4.1-7.3c0.2-0.1,0.4-0.2,0.6-0.3l3.7,7.5l-2.6-7.8
					c0.2-0.1,0.4-0.1,0.6-0.2l2.2,7.9l-1.1-8.1c0.2,0,0.4-0.1,0.7-0.1l0.6,8.2l0.4-8.2c0.2,0,0.4,0,0.7,0l-0.9,8.2l2-8.1
					c0.2,0,0.4,0.1,0.7,0.1l-2.5,8.1l3.6-7.8c0.2,0.1,0.4,0.1,0.6,0.2l-4.1,7.6l5.1-7.2c0.2,0.1,0.4,0.2,0.6,0.3l-5.5,7l6.4-6.3
					c0.2,0.1,0.3,0.3,0.5,0.4l-6.8,6l7.6-5.3c0.1,0.2,0.3,0.3,0.4,0.5L17.2,10l8.4-4c0.1,0.2,0.2,0.4,0.3,0.6l-8,3.3
					c-1.1,0.2-2.1,0.5-3.1,0.8L15.3,10.2z"/>
			</g>
			<path class="st0" d="M11.5,8.6C9.9,8.2,8.5,8,7.2,7.9c0,0.2,0,0.3,0,0.5C7.9,8.6,8.8,8.7,9.6,9c1.7,0.5,3.2,1.2,4.4,1.9
				c0.5-0.2,1-0.3,1.6-0.5C14.4,9.7,13,9.1,11.5,8.6z"/>
			<path class="st4" d="M14,10.9c-1.2-0.8-2.7-1.4-4.4-1.9C8.8,8.7,7.9,8.6,7.1,8.4c0,0.1,0,0.2,0,0.3c0,1.8,0.8,3.5,2.2,4.8
				C10.1,12.6,11.8,11.7,14,10.9z"/>
			<path class="st5" d="M10.5,14.5c1.7,1.1,3.8,1.8,6.1,1.8c5,0,9.1-3,9.5-6.8C18.5,10.1,12.3,12.2,10.5,14.5z"/>
			<path class="st6" d="M26.2,9.4c0-0.2,0-0.4,0-0.6c-0.1,0-0.3,0-0.4,0c-7.9,0.4-14.5,2.4-16.4,4.7c0.4,0.3,0.8,0.6,1.2,0.9
				C12.3,12.2,18.5,10.1,26.2,9.4z"/>
		</g>
		<g>
			<path class="st7" d="M16.7,0.4c-5.8,0-10.6,3.7-10.6,8.3s4.7,8.3,10.6,8.3s10.6-3.7,10.6-8.3S22.5,0.4,16.7,0.4z M6.5,8.8
				c0-4.4,4.6-8,10.2-8c5.6,0,10.2,3.6,10.2,8s-4.6,8-10.2,8C11.1,16.7,6.5,13.2,6.5,8.8z"/>
		</g>
	</g>
</g>
</svg>
