<?xml version="1.0" encoding="utf-8"?>
<!-- Generator: Adobe Illustrator 22.1.0, SVG Export Plug-In . SVG Version: 6.00 Build 0)  -->
<svg version="1.1" id="Layer_1" xmlns="http://www.w3.org/2000/svg" xmlns:xlink="http://www.w3.org/1999/xlink" x="0px" y="0px"
	 viewBox="0 0 176 46" style="enable-background:new 0 0 176 46;" xml:space="preserve">
<style type="text/css">
	.st0{clip-path:url(#SVGID_2_);fill:url(#SVGID_3_);}
	.st1{clip-path:url(#SVGID_5_);fill:url(#SVGID_6_);}
	.st2{clip-path:url(#SVGID_8_);fill:url(#SVGID_9_);}
	.st3{clip-path:url(#SVGID_11_);fill:url(#SVGID_12_);}
	.st4{clip-path:url(#SVGID_14_);fill:url(#SVGID_15_);}
	.st5{clip-path:url(#SVGID_17_);fill:url(#SVGID_18_);}
	.st6{clip-path:url(#SVGID_20_);fill:url(#SVGID_21_);}
	.st7{clip-path:url(#SVGID_23_);fill:url(#SVGID_24_);}
	.st8{clip-path:url(#SVGID_26_);fill:url(#SVGID_27_);}
	.st9{clip-path:url(#SVGID_29_);fill:url(#SVGID_30_);}
	.st10{clip-path:url(#SVGID_32_);fill:url(#SVGID_33_);}
	.st11{clip-path:url(#SVGID_35_);fill:url(#SVGID_36_);}
	.st12{clip-path:url(#SVGID_38_);fill:url(#SVGID_39_);}
	.st13{clip-path:url(#SVGID_41_);fill:url(#SVGID_42_);}
	.st14{fill:#4B4B4B;}
</style>
<g>
	<g>
		<defs>
			<path id="SVGID_1_" d="M11.3,37.9c0.4,0.5,0.8,0.9,1.3,1.3l17-25.7c0-0.3,0.1-0.6,0.2-0.9c0,0,0,0,0,0L11.3,37.9z"/>
		</defs>
		<clipPath id="SVGID_2_">
			<use xlink:href="#SVGID_1_"  style="overflow:visible;"/>
		</clipPath>
		
			<radialGradient id="SVGID_3_" cx="-415.6608" cy="407.1772" r="0.6285" gradientTransform="matrix(-35.8746 46.7457 46.7457 35.8746 -33908.8203 4836.0366)" gradientUnits="userSpaceOnUse">
			<stop  offset="0" style="stop-color:#008E89"/>
			<stop  offset="1" style="stop-color:#00B140"/>
		</radialGradient>
		<polygon class="st0" points="42.7,22.4 22.9,48.2 -1.6,29.3 18.2,3.6 		"/>
	</g>
	<g>
		<defs>
			<path id="SVGID_4_" d="M8,33.2c0.3,0.5,0.6,1.1,0.9,1.6l21.2-23c0.2-0.4,0.4-0.8,0.6-1.2L8,33.2z"/>
		</defs>
		<clipPath id="SVGID_5_">
			<use xlink:href="#SVGID_4_"  style="overflow:visible;"/>
		</clipPath>
		
			<radialGradient id="SVGID_6_" cx="-415.6608" cy="407.1772" r="0.6285" gradientTransform="matrix(-35.8747 46.7459 46.7459 35.8747 -33908.9531 4836.0566)" gradientUnits="userSpaceOnUse">
			<stop  offset="0" style="stop-color:#008E89"/>
			<stop  offset="1" style="stop-color:#00B140"/>
		</radialGradient>
		<polygon class="st1" points="42.4,19.5 22.3,45.7 -3.6,25.8 16.4,-0.4 		"/>
	</g>
	<g>
		<defs>
			<path id="SVGID_7_" d="M42.9,16.5c-0.1,0.3-0.2,0.5-0.3,0.8l5.4-3.6c-0.2-0.5-0.5-1-0.7-1.4L42.9,16.5z"/>
		</defs>
		<clipPath id="SVGID_8_">
			<use xlink:href="#SVGID_7_"  style="overflow:visible;"/>
		</clipPath>
		
			<radialGradient id="SVGID_9_" cx="-415.6607" cy="407.1771" r="0.6285" gradientTransform="matrix(-35.8744 46.7455 46.7455 35.8744 -33908.6758 4836.0151)" gradientUnits="userSpaceOnUse">
			<stop  offset="0" style="stop-color:#008E89"/>
			<stop  offset="1" style="stop-color:#00B140"/>
		</radialGradient>
		<polygon class="st2" points="50.4,14.1 46,19.9 40.1,15.4 44.6,9.6 		"/>
	</g>
	<g>
		<defs>
			<path id="SVGID_10_" d="M40.4,20l9.6,4.3c0-0.6,0-1.4,0-1.4l-9.3-3.1C40.6,19.9,40.5,20,40.4,20"/>
		</defs>
		<clipPath id="SVGID_11_">
			<use xlink:href="#SVGID_10_"  style="overflow:visible;"/>
		</clipPath>
		
			<radialGradient id="SVGID_12_" cx="-415.6602" cy="407.1771" r="0.6285" gradientTransform="matrix(-35.8716 46.7419 46.7419 35.8716 -33906.0117 4835.6147)" gradientUnits="userSpaceOnUse">
			<stop  offset="0" style="stop-color:#008E89"/>
			<stop  offset="1" style="stop-color:#00B140"/>
		</radialGradient>
		<polygon class="st3" points="52.2,21.5 46.4,29 38.2,22.6 43.9,15.2 		"/>
	</g>
	<g>
		<defs>
			<path id="SVGID_13_" d="M42,18.4c-0.1,0.1-0.2,0.3-0.3,0.4l7.9,0c-0.1-0.5-0.2-1-0.3-1.4L42,18.4z"/>
		</defs>
		<clipPath id="SVGID_14_">
			<use xlink:href="#SVGID_13_"  style="overflow:visible;"/>
		</clipPath>
		
			<radialGradient id="SVGID_15_" cx="-415.6607" cy="407.1771" r="0.6285" gradientTransform="matrix(-35.8744 46.7455 46.7455 35.8744 -33908.6523 4836.0117)" gradientUnits="userSpaceOnUse">
			<stop  offset="0" style="stop-color:#008E89"/>
			<stop  offset="1" style="stop-color:#00B140"/>
		</radialGradient>
		<polygon class="st4" points="50.3,17.9 46.7,22.6 41,18.2 44.6,13.5 		"/>
	</g>
	<g>
		<defs>
			<path id="SVGID_16_" d="M27.3,0.8L37,7L23.8,1.1c-0.7,0.1-1.4,0.3-2.1,0.5L35.6,7L18.1,3c-0.6,0.3-1.3,0.7-1.9,1l18.2,3.2
				l-21.3-1c-0.5,0.5-1.1,1-1.6,1.5l21.9-0.2l-24.2,3c-0.4,0.6-0.7,1.2-1.1,1.8l24.5-4.3L6.6,16.2c-0.2,0.6-0.3,1.2-0.5,1.8
				l25.7-9.2l-26.3,13c0,0.5,0,1.3,0,1.9L31.1,9.6L6,27.6c0.1,0.6,0.3,1.1,0.4,1.7L31,10.2c1.3-1.5,3.2-2.5,5.3-2.5
				c3.8,0,6.8,3.1,6.8,6.8c0,0.4,0,0.8-0.1,1.1L45,8.9c-0.4-0.5-0.8-0.9-1.2-1.3l-0.5,4.7l-2.5-7.4c-0.6-0.4-1.2-0.8-1.8-1.2
				l2.2,4.9l-5.6-6.5c-0.7-0.3-1.5-0.5-2.3-0.7l5.7,5.9l-9.3-6.5c-0.5,0-1.2-0.1-1.9-0.1C27.6,0.8,27.4,0.8,27.3,0.8"/>
		</defs>
		<clipPath id="SVGID_17_">
			<use xlink:href="#SVGID_16_"  style="overflow:visible;"/>
		</clipPath>
		
			<radialGradient id="SVGID_18_" cx="-415.6609" cy="407.1772" r="0.6285" gradientTransform="matrix(-35.875 46.7463 46.7463 35.875 -33909.2812 4836.1069)" gradientUnits="userSpaceOnUse">
			<stop  offset="0" style="stop-color:#008E89"/>
			<stop  offset="1" style="stop-color:#00B140"/>
		</radialGradient>
		<polygon class="st5" points="58.7,11.3 30.4,48.3 -8.2,18.7 20.2,-18.3 		"/>
	</g>
	<g>
		<defs>
			<path id="SVGID_19_" d="M15.8,41.7c0.5,0.3,0.9,0.6,1.4,0.9l12.3-27.2c0-0.3,0-0.5,0-0.8L15.8,41.7z"/>
		</defs>
		<clipPath id="SVGID_20_">
			<use xlink:href="#SVGID_19_"  style="overflow:visible;"/>
		</clipPath>
		
			<radialGradient id="SVGID_21_" cx="-415.6608" cy="407.1772" r="0.6285" gradientTransform="matrix(-35.8745 46.7457 46.7457 35.8745 -33908.8086 4836.0366)" gradientUnits="userSpaceOnUse">
			<stop  offset="0" style="stop-color:#008E89"/>
			<stop  offset="1" style="stop-color:#00B140"/>
		</radialGradient>
		<polygon class="st6" points="43.1,24.9 24.4,49.2 2.2,32.2 20.9,7.9 		"/>
	</g>
	<g>
		<defs>
			<path id="SVGID_22_" d="M37,21.3l9.4,13.8c0.3-0.5,0.6-0.9,0.9-1.4l-10-12.4C37.2,21.3,37.1,21.3,37,21.3"/>
		</defs>
		<clipPath id="SVGID_23_">
			<use xlink:href="#SVGID_22_"  style="overflow:visible;"/>
		</clipPath>
		
			<radialGradient id="SVGID_24_" cx="-415.6608" cy="407.1772" r="0.6285" gradientTransform="matrix(-35.8747 46.7459 46.7459 35.8747 -33908.9336 4836.0532)" gradientUnits="userSpaceOnUse">
			<stop  offset="0" style="stop-color:#008E89"/>
			<stop  offset="1" style="stop-color:#00B140"/>
		</radialGradient>
		<polygon class="st7" points="54,26.4 43.4,40.1 30.3,30 40.8,16.3 		"/>
	</g>
	<g>
		<defs>
			<path id="SVGID_25_" d="M38.7,20.9L48.9,30c0.2-0.5,0.3-1,0.4-1.5l-10.3-7.7C39,20.8,38.9,20.9,38.7,20.9"/>
		</defs>
		<clipPath id="SVGID_26_">
			<use xlink:href="#SVGID_25_"  style="overflow:visible;"/>
		</clipPath>
		
			<radialGradient id="SVGID_27_" cx="-415.6608" cy="407.1772" r="0.6285" gradientTransform="matrix(-35.8747 46.7459 46.7459 35.8747 -33908.9453 4836.0566)" gradientUnits="userSpaceOnUse">
			<stop  offset="0" style="stop-color:#008E89"/>
			<stop  offset="1" style="stop-color:#00B140"/>
		</radialGradient>
		<polygon class="st8" points="53.8,24.2 45.4,35.1 34.3,26.6 42.7,15.7 		"/>
	</g>
	<g>
		<defs>
			<path id="SVGID_28_" d="M35.1,21.2l7.7,18.1c0.4-0.4,0.8-0.8,1.2-1.2l-8.5-16.9C35.4,21.3,35.3,21.3,35.1,21.2z"/>
		</defs>
		<clipPath id="SVGID_29_">
			<use xlink:href="#SVGID_28_"  style="overflow:visible;"/>
		</clipPath>
		
			<radialGradient id="SVGID_30_" cx="-415.6608" cy="407.1772" r="0.6285" gradientTransform="matrix(-35.8746 46.7458 46.7458 35.8746 -33908.8672 4836.0439)" gradientUnits="userSpaceOnUse">
			<stop  offset="0" style="stop-color:#008E89"/>
			<stop  offset="1" style="stop-color:#00B140"/>
		</radialGradient>
		<polygon class="st9" points="52.8,27.9 40.7,43.6 26.4,32.6 38.4,16.9 		"/>
	</g>
	<g>
		<defs>
			<path id="SVGID_31_" d="M26.8,45.2c0.6,0,1.4,0,1.7,0l2.4-26.6c-0.1-0.1-0.2-0.3-0.3-0.5L26.8,45.2z"/>
		</defs>
		<clipPath id="SVGID_32_">
			<use xlink:href="#SVGID_31_"  style="overflow:visible;"/>
		</clipPath>
		
			<radialGradient id="SVGID_33_" cx="-415.6609" cy="407.1772" r="0.6285" gradientTransform="matrix(-35.8753 46.7467 46.7467 35.8753 -33909.5625 4836.1484)" gradientUnits="userSpaceOnUse">
			<stop  offset="0" style="stop-color:#008E89"/>
			<stop  offset="1" style="stop-color:#00B140"/>
		</radialGradient>
		<polygon class="st10" points="44,28.2 29.4,47.2 13.7,35.2 28.3,16.2 		"/>
	</g>
	<g>
		<defs>
			<path id="SVGID_34_" d="M38,42.7c0.5-0.3,1-0.6,1.5-0.9l-5.8-21c-0.1-0.1-0.3-0.1-0.4-0.2L38,42.7z"/>
		</defs>
		<clipPath id="SVGID_35_">
			<use xlink:href="#SVGID_34_"  style="overflow:visible;"/>
		</clipPath>
		
			<radialGradient id="SVGID_36_" cx="-415.6608" cy="407.1772" r="0.6285" gradientTransform="matrix(-35.8747 46.7459 46.7459 35.8747 -33908.9453 4836.0566)" gradientUnits="userSpaceOnUse">
			<stop  offset="0" style="stop-color:#008E89"/>
			<stop  offset="1" style="stop-color:#00B140"/>
		</radialGradient>
		<polygon class="st11" points="50.2,28.8 37.3,45.7 22.7,34.6 35.7,17.7 		"/>
	</g>
	<g>
		<defs>
			<path id="SVGID_37_" d="M21,44.2c0.5,0.2,1.1,0.3,1.7,0.5L30,17.1c-0.1-0.2-0.2-0.4-0.2-0.6L21,44.2z"/>
		</defs>
		<clipPath id="SVGID_38_">
			<use xlink:href="#SVGID_37_"  style="overflow:visible;"/>
		</clipPath>
		
			<radialGradient id="SVGID_39_" cx="-415.6608" cy="407.1772" r="0.6285" gradientTransform="matrix(-35.8747 46.7459 46.7459 35.8747 -33908.9844 4836.062)" gradientUnits="userSpaceOnUse">
			<stop  offset="0" style="stop-color:#008E89"/>
			<stop  offset="1" style="stop-color:#00B140"/>
		</radialGradient>
		<polygon class="st12" points="43.6,26.9 26.7,49 7.4,34.2 24.4,12.1 		"/>
	</g>
	<g>
		<defs>
			<path id="SVGID_40_" d="M31.8,19.6l0.7,25.1c0.6-0.1,1.2-0.3,1.7-0.5l-2.1-24.3C32.1,19.8,31.9,19.7,31.8,19.6z"/>
		</defs>
		<clipPath id="SVGID_41_">
			<use xlink:href="#SVGID_40_"  style="overflow:visible;"/>
		</clipPath>
		
			<radialGradient id="SVGID_42_" cx="-415.6608" cy="407.1772" r="0.6285" gradientTransform="matrix(-35.8746 46.7458 46.7458 35.8746 -33908.8672 4836.0439)" gradientUnits="userSpaceOnUse">
			<stop  offset="0" style="stop-color:#008E89"/>
			<stop  offset="1" style="stop-color:#00B140"/>
		</radialGradient>
		<polygon class="st13" points="46.4,28.9 33.4,45.9 19.7,35.4 32.7,18.4 		"/>
	</g>
	<polygon class="st14" points="58.3,14.7 59.9,14.7 59.9,31.3 58.3,31.3 58.3,23 	"/>
	<polygon class="st14" points="64.3,14.7 65.9,14.7 65.9,21.8 74.9,21.8 74.9,14.7 76.5,14.7 76.5,31.3 74.9,31.3 74.9,23.3 
		65.9,23.3 65.9,31.3 64.3,31.3 	"/>
	<path class="st14" d="M79.6,27.2l1.4-0.5c0.7,2.3,2.4,3.5,4.8,3.5c2.5,0,4.1-1.1,4.1-3c0-1.7-0.8-2.6-4.4-3.7
		c-3.6-1.1-5.4-2.1-5.4-4.8c0-2.4,2.1-4.3,5.2-4.3c3.1,0,4.9,1.6,5.7,3.8l-1.4,0.6c-0.8-2.2-2.3-3-4.4-3c-2.2,0-3.6,1.2-3.6,2.7
		c0,1.9,1.1,2.5,4.6,3.6c3.5,1.1,5.2,2.3,5.2,5c0,2.8-2.5,4.6-5.8,4.6C82.6,31.7,80.4,29.9,79.6,27.2"/>
	<path class="st14" d="M100.3,14.7h2.1l5.6,14.6h0l5.5-14.6h2.1v16.7H114v-14h0c-0.2,0.7-0.6,1.8-1,2.9l-4.3,11h-1.5l-4.3-11
		c-0.4-1.1-0.7-1.8-1-3h0v14h-1.5V14.7z"/>
	<path class="st14" d="M118.9,28.6c0-2.3,2-4.1,8-5V23c0-1.6-0.9-2.4-2.4-2.4c-1.9,0-3.2,0.8-4.4,1.9l-0.8-1
		c1.4-1.3,3.1-2.2,5.4-2.2c2.7,0,3.8,1.4,3.8,3.8v5.4c0,1.4,0.1,2.3,0.3,2.9h-1.6c-0.2-0.5-0.3-1-0.3-1.7c-1.4,1.2-2.9,1.9-4.7,1.9
		C120.1,31.5,118.9,30.4,118.9,28.6 M127,28.4v-3.7c-5.1,0.9-6.5,2.1-6.5,3.7c0,1.2,0.8,1.9,2.2,1.9C124.3,30.3,125.7,29.6,127,28.4
		"/>
	<path class="st14" d="M132.1,19.5h1.6v2.3h0c0.9-1.5,2.4-2.6,4.7-2.6h0.3l-0.2,1.4c0,0-0.4,0-0.5,0c-1.9,0-3.5,1.1-4.4,3v7.7h-1.6
		V19.5z"/>
	<polygon class="st14" points="141,14.7 142.5,14.7 142.5,25.7 148.2,19.5 150,19.5 146.1,23.7 150.5,31.3 148.8,31.3 145.1,24.8 
		142.5,27.6 142.5,31.3 141,31.3 	"/>
	<path class="st14" d="M152.9,15h1.6v1.7h-1.6V15z M153,19.5h1.6v11.9H153V19.5z"/>
	<path class="st14" d="M159.3,28.6v-7.8h-2.1v-1.3h2.1v-4.3h1.6v4.3h3.1v1.3h-3.1v7.5c0,1.3,0.4,1.9,1.9,1.9c0.5,0,0.9,0,1.2-0.2
		v1.3c-0.4,0.1-1,0.1-1.5,0.1C160.1,31.5,159.3,30.6,159.3,28.6"/>
	<polygon class="st14" points="165.8,19.7 165.1,19.7 165.1,19.5 166.7,19.5 166.7,19.7 166,19.7 166,21.6 165.8,21.6 	"/>
	<path class="st14" d="M167,19.5h0.3l0.7,1.9h0l0.7-1.9h0.3v2.1h-0.2v-1.8h0c0,0.1-0.1,0.2-0.1,0.4l-0.6,1.4h-0.2l-0.6-1.4
		c-0.1-0.1-0.1-0.2-0.1-0.4h0v1.8H167V19.5z"/>
</g>
</svg>
