<svg xmlns="http://www.w3.org/2000/svg" width="40" height="40" viewBox="0 0 40 40"><defs><style>.cls-1 { fill: #fff; fill-rule: evenodd; }</style></defs><path id="Logo" class="cls-1" d="M38.326 1.674v36.652H1.676V1.674h36.65M39.992.01H.01v39.98H39.99V.01zM15.475 22h.6l-1.32 2.534L13.442 22h.593v-1.434h-3.914V22h1.45l2.248 3.742-2.247 3.594h-1.45v1.438h3.913v-1.438h-.593l1.314-2.387 1.32 2.386h-.6v1.438h3.92v-1.438h-1.45l-2.257-3.594L17.948 22h1.444v-1.434h-3.917V22zm6.507-4.028h-1.415v1.44h4.723v-1.44h-1.44V15.51h1.07a.883.883 0 0 1 .977.516l1.432 2.625a1.246 1.246 0 0 0 1.4.76h1.176v-1.438h-.322a.675.675 0 0 1-.68-.3L27.74 15.55a1.353 1.353 0 0 0-.5-.53v-.03a2.8 2.8 0 0 0 1.9-2.825 2.66 2.66 0 0 0-1.858-2.725 6.53 6.53 0 0 0-1.914-.215h-4.83v1.44h1.438v7.3zm1.87-7.3h1.507a2.8 2.8 0 0 1 1.133.186 1.477 1.477 0 0 1 .794 1.473 1.565 1.565 0 0 1-1.617 1.746h-1.82v-3.4zm-12.278 7.3h-1.44v1.44h9.252v-2.878h-1.438v1.438h-4.5V10.65h1.45V9.212h-4.773v1.438h1.45v7.317zm15.21 2.838a7.11 7.11 0 0 0-2.137-.244h-4.1V22h1.438v7.336h-1.442v1.432h4.118a6.648 6.648 0 0 0 2.268-.3 5.212 5.212 0 0 0-.145-9.663zM26.25 29a3.416 3.416 0 0 1-1.487.336h-.912V22h.913a3.286 3.286 0 0 1 1.414.3 3.857 3.857 0 0 1 .072 6.7z"/></svg>