<?xml version="1.0" encoding="utf-8"?>
<!-- Generator: Adobe Illustrator 22.1.0, SVG Export Plug-In . SVG Version: 6.00 Build 0)  -->
<svg version="1.1" id="Layer_1" xmlns="http://www.w3.org/2000/svg" xmlns:xlink="http://www.w3.org/1999/xlink" x="0px" y="0px"
	 viewBox="0 0 40 40" style="enable-background:new 0 0 40 40;" xml:space="preserve">
<style type="text/css">
	.st0{fill:#231F20;}
</style>
<path id="Logo" class="st0" d="M38.3,1.7v36.7H1.7V1.7H38.3 M40,0H0v40h40L40,0L40,0z M15.5,22h0.6l-1.3,2.5L13.4,22H14v-1.4h-3.9
	V22h1.4l2.2,3.7l-2.2,3.6h-1.4v1.4H14v-1.4h-0.6l1.3-2.4l1.3,2.4h-0.6v1.4h3.9v-1.4h-1.5l-2.3-3.6l2.3-3.7h1.4v-1.4h-3.9V22z M22,18
	h-1.4v1.4h4.7V18h-1.4v-2.5h1.1c0.4-0.1,0.8,0.1,1,0.5l1.4,2.6c0.2,0.6,0.8,0.9,1.4,0.8h1.2V18h-0.3c-0.3,0-0.5-0.1-0.7-0.3
	l-1.2-2.1c-0.1-0.2-0.3-0.4-0.5-0.5v0c1.2-0.4,2-1.6,1.9-2.8c0.1-1.2-0.7-2.4-1.9-2.7c-0.6-0.2-1.3-0.2-1.9-0.2h-4.8v1.4H22L22,18
	L22,18z M23.9,10.7h1.5c0.4,0,0.8,0,1.1,0.2c0.5,0.3,0.9,0.9,0.8,1.5c0.1,0.9-0.5,1.6-1.4,1.7c-0.1,0-0.2,0-0.2,0h-1.8L23.9,10.7
	L23.9,10.7z M11.6,18h-1.4v1.4h9.3v-2.9h-1.4V18h-4.5v-7.3h1.4V9.2h-4.8v1.4h1.4L11.6,18L11.6,18z M26.8,20.8
	c-0.7-0.2-1.4-0.3-2.1-0.2h-4.1V22H22v7.3h-1.4v1.4h4.1c0.8,0,1.5-0.1,2.3-0.3c2.7-1.1,3.9-4.2,2.8-6.8
	C29.2,22.3,28.1,21.3,26.8,20.8L26.8,20.8z M26.2,29c-0.5,0.2-1,0.3-1.5,0.3h-0.9V22h0.9c0.5,0,1,0.1,1.4,0.3c1.9,1,2.5,3.4,1.5,5.2
	C27.3,28.1,26.8,28.7,26.2,29z"/>
</svg>
