<?xml version="1.0" encoding="utf-8"?>
<!-- Generator: Adobe Illustrator 22.1.0, SVG Export Plug-In . SVG Version: 6.00 Build 0)  -->
<svg version="1.1" id="Layer_1" xmlns="http://www.w3.org/2000/svg" xmlns:xlink="http://www.w3.org/1999/xlink" x="0px" y="0px"
	 viewBox="0 0 1000 153.4" style="enable-background:new 0 0 1000 153.4;" xml:space="preserve">
<path d="M968.4,100.2v1.4V100.2l-22.1-63.6h-12.7l28.7,82.4v0.5c-1.4,8-5.2,15.1-10.8,20.7c-3.3,2.4-7.5,3.3-11.3,2.8
	c-2.4,0-4.2-0.5-6.1-0.9v9.9c2.8,0.5,5.7,0.9,8.5,1.4c5.7,0,10.8-1.4,15.1-4.7c6.6-6.1,11.3-13.7,13.7-22.1l28.7-89.5h-12.7
	L968.4,100.2z"/>
<path d="M912.4,70.1h-43.3c0.9-17,8-25,21.7-25C905.3,45.1,911.9,53.1,912.4,70.1L912.4,70.1z M924.6,80.4v-8
	c0-13.7-3.3-23.6-10.4-29.7c-6.6-5.7-15.5-8.5-24-8c-5.2,0-9.9,0.9-14.6,2.8c-4.2,1.9-8,4.7-11.3,8.5c-6.6,8.9-9.4,20.3-8.9,31.6
	c-0.9,12.2,3.3,24.5,11.8,33.4c7.1,6.6,16,9.9,25.4,9.4c18.4,0,27.3-10.4,31.1-19.3L913.3,96c-3.3,8.5-11.8,14.1-20.7,14.1
	c-7.1,0.5-13.7-2.8-17.9-8.5c-4.2-6.1-6.6-14.1-6.1-21.7h56V80.4z"/>
<path d="M150.3,110.6c-13.7,0-22.1-12.2-22.1-32.5s8.5-32.5,22.1-32.5c13.7,0,22.1,12.2,22.1,32.5S164,110.6,150.3,110.6
	 M176.7,47.4c-6.1-8-16-12.7-26.4-12.7c-10.4-0.5-20.3,4.2-26.4,12.7c-6.1,8.9-9.4,19.3-8.9,30.6c-0.5,10.8,2.8,21.7,8.9,30.6
	c6.1,8,16,12.7,26.4,12.7c10.4,0.5,20.3-4.2,26.4-12.7c6.1-8.9,9.4-19.3,9.4-30.6S182.8,56.4,176.7,47.4"/>
<path d="M214.4,72.9c3.3-17,11.8-25,27.3-25V35.2c-13.2,0-20.3,5.2-27.3,17v-0.9V36.6h-12.7v82.9h12.7V72.9z"/>
<path d="M529,34.3c0-4.7,1.4-9.4,5.2-12.7c4.2-3.3,9.4-4.7,15.1-4.7c6.1,0,12.2,1.9,17.4,5.7c4.2,3.8,7.5,8.5,8.5,13.7l12.2-1.4
	C584.1,22,574.2,11.6,562,7.4c-12.7-4.2-26.4-1.9-36.7,6.6c-6.1,5.2-9.4,12.7-9.4,20.7c0,8.5,3.8,16.5,10.8,21.2s15.1,8.5,23.6,10.8
	c14.6,5.2,27.8,9.9,27.8,23.1c0,5.2-1.9,10.4-5.7,14.1c-5.2,4.2-11.3,6.1-17.9,5.7c-13.7,0-23.6-7.5-29.2-22.6L513,90.3
	c3.3,7.5,7.5,14.6,13.7,20.7c7.5,6.6,17.4,9.9,27.3,9.4c13.2,0,23.1-3.3,29.7-10.4c5.7-6.1,8.5-14.1,8.5-22.6s-4.2-16.5-11.3-21.2
	c-7.5-4.7-15.5-8.5-24-10.8C541.7,50.3,528.5,46,529,34.3"/>
<path d="M611.9,46.5h-12.2v-9.9h12.2V9.8h12.7v26.8h13.7V47h-13.7v56.5c0,3.8,0.9,7.1,9.4,7.1h4.2v8.9c-2.8,0.9-5.7,0.9-8.5,1.4
	c-4.7,0.5-8.9-0.5-13.2-2.8c-3.3-2.4-5.2-6.1-5.2-9.9V46.5H611.9z"/>
<path d="M833.3,103.5c0,3.8,0.9,7.1,9.9,7.1h4.2v8.9c-2.8,0.9-5.7,0.9-8.5,1.4c-4.7,0.5-8.9-0.5-13.2-2.8c-3.3-2.4-5.7-6.1-5.2-9.9
	V4.6h12.7L833.3,103.5L833.3,103.5z"/>
<path d="M428.7,58.3c4.2-4.7,14.1-12.7,23.1-12.7c8.9,0,12.7,4.2,12.7,14.1v59.8h12.7V59.7c0-17.9-12.7-24-24.5-24
	c-9.4,0.5-18.4,5.2-24,12.7V36.6H416v82.9h12.7V58.3L428.7,58.3z"/>
<path d="M381.6,95c-0.5,7.1-14.1,16-25,15.5c-7.1-0.5-12.2-6.1-12.7-13.2c-0.9-13.2,8.9-19.3,31.6-21.7c1.9,0,4.2-0.5,6.1-1.4V95
	L381.6,95z M381.6,109.1c0,3.8,1.9,7.5,5.7,8.9c3.8,1.4,7.5,1.9,11.3,0.9v-8.9c-1.4,0-2.8-0.5-3.8-1.4c-0.9-0.9-1.4-2.4-0.9-3.8
	V60.2c0.5-7.5-3.3-15.1-9.4-19.3c-5.7-3.8-12.7-5.7-19.8-5.7c-12.7-0.5-24.5,6.1-30.6,17.9l10.4,5.7c3.3-8.5,11.3-13.7,20.3-12.7
	c10.8,0,16.5,5.2,16.5,14.6v2.8c0,0.5,0,0.9,0,1.4c-1.4,0.9-2.8,1.4-4.2,1.4c-15.1,1.9-25.4,4.2-33,9.4c-8,4.7-13.2,13.2-13.2,22.1
	c0.5,13.2,11.3,24,24.5,24C365.6,121.9,375.4,117.6,381.6,109.1L381.6,109.1z"/>
<path d="M701.9,95c-0.5,7.1-14.1,16-25,15.5c-7.1-0.5-12.2-6.1-12.7-13.2c-0.9-13.2,8.9-19.3,31.6-21.7c1.9,0,4.2-0.5,6.1-1.4V95
	L701.9,95z M701.9,109.1c0,3.8,1.9,7.5,5.7,8.9c3.8,1.4,7.5,1.9,11.3,0.9v-8.9c-1.4,0-2.8-0.5-3.8-1.4c-0.9-0.9-1.4-2.4-0.9-3.8
	V60.2c0.5-7.5-3.3-15.1-9.4-19.3c-5.7-3.8-12.7-5.7-19.8-5.7c-12.7-0.5-24.5,6.6-30.6,17.9l10.4,5.7c3.3-8.5,11.3-13.7,20.3-12.7
	c10.8,0,16.5,5.2,16.5,14.6v2.8c0,0.5,0,0.9,0,1.4c-1.4,0.9-2.8,1.4-4.2,1.4c-15.1,1.9-25.4,4.2-33,9.4c-8,4.7-13.2,13.2-13.2,22.1
	c0.5,13.2,11.3,24,24.5,24C685.8,121.9,695.7,117.6,701.9,109.1L701.9,109.1z"/>
<polygon points="49.5,97.4 22.7,7.4 1,7.4 1,119.5 14.2,119.5 14.2,16.8 14.2,17.3 44.8,119.5 54.7,119.5 85.3,17.3 85.8,16.8 
	85.8,119.5 98.5,119.5 98.5,7.4 76.8,7.4 50,97.4 50,97.8 "/>
<path d="M749,58.3c4.2-4.7,14.1-12.7,23.1-12.7c8.9,0,12.7,4.2,12.7,14.6V120h12.7V59.7c0-17.9-12.7-24.5-24.5-24.5
	c-9.4,0.5-18.4,5.2-24,12.7V36.6h-12.7v82.9H749L749,58.3L749,58.3z"/>
<path d="M302.4,95.5c-2.8,8.5-10.8,14.6-19.3,15.1c-13.2,0-22.6-8.5-22.6-33c0-21.2,8.5-32,22.6-32c8,0,15.1,4.2,19.3,10.4V95.5z
	 M305.3,36.6l-2.8,8.9c-4.7-6.6-12.2-10.4-20.7-10.4c-14.6,0-34.9,9.9-34.9,42.9c0,32,20.3,42.9,34.4,42.9c8-0.5,15.5-4.2,20.3-10.8
	l0.5-0.5v15.5c0,5.2-2.4,9.9-6.1,13.2c-3.8,3.3-8.5,5.2-13.7,4.7c-8.9,0-17.4-1.4-25.4-5.2v11.3c7.5,2.8,16,4.2,24,4.2
	c22.6,0,33.4-12.7,33.4-30.6V36.6H305.3z"/>
</svg>
