<?xml version="1.0" encoding="utf-8"?>
<!-- Generator: Adobe Illustrator 22.1.0, SVG Export Plug-In . SVG Version: 6.00 Build 0)  -->
<svg version="1.1" id="Layer_1" xmlns="http://www.w3.org/2000/svg" xmlns:xlink="http://www.w3.org/1999/xlink" x="0px" y="0px"
	 viewBox="0 0 146.7 152" style="enable-background:new 0 0 146.7 152;" xml:space="preserve">
<style type="text/css">
	.st0{fill:#E51C3A;}
	.st1{fill:#F5F5F5;}
</style>
<path class="st0" d="M29.2,113.8c-0.6-0.9-1.6-1.4-3.1-1.4c-1,0-1.9,0.5-2.4,1.4c-0.6,1-0.8,2.1-0.8,4c0,1.6,0.1,2.8,0.5,3.6
	c0.6,1.1,1.4,1.6,2.6,1.6c1.1,0,1.7-0.3,2.5-0.9c0.6-0.4,0.8-1,0.8-1h-0.1V113.8z"/>
<path class="st0" d="M86.8,121.8h-0.4v0.6h0.4c0.2,0,0.4,0,0.4-0.3C87.2,121.8,87,121.8,86.8,121.8z"/>
<path class="st0" d="M38,112.2c-1.8,0-2.8,1.4-3,4.3h5.9c0-1.5-0.2-2.4-0.6-3.1C39.9,112.7,39,112.2,38,112.2z"/>
<path class="st0" d="M36.1,77.7c0.7-1.2,1-2.5,1.1-4.7c0-4.1-2.1-6.6-5.7-6.6h-5.4V80h4.4C33.9,80,35,79.5,36.1,77.7z"/>
<path class="st0" d="M86.8,121.1c-0.8,0-1.4,0.7-1.4,1.6c0,0.9,0.6,1.6,1.4,1.6s1.4-0.7,1.4-1.6C88.2,121.8,87.6,121.1,86.8,121.1z
	 M87.6,123.8h-0.4l-0.6-1h-0.2v1H86v-2.3h0.8c0.5,0,0.8,0.2,0.8,0.7c0,0.3-0.2,0.5-0.6,0.6L87.6,123.8z"/>
<rect x="4.3" y="8.5" width="130.3" height="130.3"/>
<path class="st0" d="M68.2,70.1c0.7,1.3,1.1,2.7,1.1,4.1c1.2-0.9,2.2-1.7,3.6-2.4c1.6-0.9,3.7-1.4,5.5-1.4c3.4,0,6.5,1.9,7.4,4.7
	c0.4,1.2,0.6,2.6,0.6,4.7v23.9h-8V82.3c0-3.7-0.6-4.8-2.7-4.8c-1.6,0-3.7,1.1-5.6,2.9v23.1H62V79.9c0-2.8-0.4-5.5-1.1-7.7L68.2,70.1
	z"/>
<path class="st0" d="M53.4,56.6c2.7,0,4.8,2.4,4.8,5.3c0,2.9-2.2,5.3-5,5.3c-2.7,0-4.9-2.4-4.9-5.3C48.3,59,50.6,56.6,53.4,56.6z"/>
<polygon class="st0" points="57.3,70.1 57.3,103.5 49.2,103.5 49.2,71.5 "/>
<path d="M17.7,59.2h11c7.1,0,9.2,0.8,11.6,2.2c4,2.3,6.1,6.4,6,11.5c0,5.9-2.6,10.6-7.2,12.9c-1.9,1-3.8,1.5-8.4,1.5h-4.6v16.3h-8.4
	V59.2z"/>
<rect x="17.7" y="105.6" class="st0" width="2.1" height="19.1"/>
<path d="M29.5,124.6c0,0-0.3-0.7-0.3-1.4c-0.9,1.1-1.9,1.6-3.4,1.6c-3.3,0-5.2-2.6-5.2-7c0-2.9,1-5.1,2.7-6.4
	c0.9-0.7,1.6-0.9,2.5-0.9c1.5,0,2.7,0.7,3.5,1.8c0,0,0-1.1,0-2.1v-4.6h2v14.6c0,2.4,0.1,3.7,0.3,4.4H29.5z"/>
<path d="M43.1,118.1v0.1h-8v0.3c0,1.3,0.2,2.3,0.6,3c0.7,1.2,1.9,1.7,3.2,1.7c1.2,0,2.2-0.4,3.1-1.3l0.8,1.4
	c-1.1,1.1-2.7,1.7-4.3,1.7c-3.6,0-5.7-2.8-5.7-7.4c0-2.3,0.4-3.8,1.5-5.2c1-1.3,2.3-1.9,3.8-1.9c1.4,0,2.6,0.5,3.5,1.5
	c1.1,1.2,1.5,2.5,1.5,5.8V118.1z"/>
<path class="st0" d="M54.1,124.6h-2v-9.4c0-1.5-0.1-1.8-0.5-2.3c-0.3-0.4-0.8-0.6-1.4-0.6c-1.1,0-2.7,0.9-3.6,2v10.3h-2v-10.7
	c0-2-0.5-2.9-0.5-2.9l2-0.6c0,0,0.5,1.1,0.5,2.2c1.3-1.4,2.6-2.1,4-2.1c1.4,0,2.6,0.8,3.2,2c0.2,0.5,0.3,1,0.3,1.6V124.6z"/>
<path class="st0" d="M66.6,124.6h-2.1v-12.2h-5.6v8.9c0,1.6,0.3,2.1,1.6,2.1c0.6,0,0.9-0.1,1.3-0.3l0.3,1.4
	c-0.7,0.4-1.4,0.6-2.3,0.6c-0.7,0-1.2-0.1-1.7-0.4c-0.9-0.5-1.2-1.4-1.2-2.8v-9.5h-1.7v-1.6h1.7v-5.3H59v5.2h5.8l1.8-0.3V124.6z"/>
<path class="st0" d="M73,123.5c0.6,0,0.9-0.1,1.3-0.3l0.3,1.4c-0.7,0.4-1.4,0.6-2.3,0.6c-0.7,0-1.2-0.1-1.7-0.4
	c-0.9-0.5-1.2-1.4-1.2-2.8v-9.5h-1.7v-1.6h1.7v-5.3h2.1v5.3h3.2l-0.6,1.6h-2.7v8.9C71.4,123,71.7,123.5,73,123.5z"/>
<path class="st0" d="M77.9,130.4l-0.6-1.5c1.3-0.5,2-1.1,2.5-2.6c-0.2-1.1-0.3-1.6-0.3-1.6c-0.2-0.9-0.9-3.6-1.3-5l-2.8-8.7l2-0.7
	l2.6,9c0.4,1.4,0.8,3.5,0.8,3.5h0.1c0,0,0.5-1.8,0.8-2.9l2.4-9.1h2.3L82,125.2C81.2,128,80.1,129.8,77.9,130.4z"/>
<path d="M86.8,124.6c-1,0-1.9-0.9-1.9-2c0-1.1,0.8-2,1.9-2c1,0,1.9,0.9,1.9,2C88.7,123.7,87.9,124.6,86.8,124.6z"/>
<path class="st0" d="M115.8,82c0,5.6-4.8,9.7-11.4,9.7c-0.4,0-0.6,0-1.2-0.1c-2.1,1-3.2,1.8-3.2,2.7c0,0.5,0.5,0.8,1.3,0.8l4.3,0.1
	c4.7,0.1,7.2,0.9,9.4,2.9c1.9,1.8,2.7,4.1,2.7,7c0,2.8-0.8,4.9-2.5,6.8c-2.7,3.1-7.4,4.2-12.2,4.2c-4.4,0-8.9-0.8-11.7-3.5
	c-1.7-1.7-2.5-3.6-2.5-5.8c0-1.8,0.4-2.7,0.7-3.3H97c-0.3,0.8-0.4,1.2-0.4,2.1c0,2.6,2.1,4,5.8,4c2.1,0,3.8-0.3,5.1-1.1
	c1.2-0.7,2-2,2-3.3c0-2.9-2.5-3.8-5.7-3.9l-3.4-0.1c-3.6,0-6-0.4-7.4-1c-1.5-0.6-2.4-2.1-2.4-4.3c0-2.1,0.6-4.1,5.7-5.5
	c-4.4-1.3-6.6-4.3-6.6-9.1c0-6.7,5.1-11,13-11c1.7,0,3.3,0.2,5.5,0.8c1.7,0.4,2.8,0.7,3.8,0.7c2.2,0,4.5-1,6.4-2.8l3.4,5.4
	c-1.8,1.7-3.5,2.4-5.7,2.4c-0.8,0-1.6-0.1-2.1-0.2C115.2,78.2,115.8,79.8,115.8,82z"/>
<path d="M102.5,76.5c-3,0-4.8,1.8-4.8,4.9c0,3.4,1.9,4.7,4.8,4.7c3.2,0,4.9-1.7,4.9-4.7C107.4,78.3,105.6,76.5,102.5,76.5z"/>
<path class="st1" d="M86.8,120.6c-1.1,0-1.9,0.9-1.9,2c0,1.1,0.9,2,1.9,2c1.1,0,1.9-0.9,1.9-2C88.7,121.5,87.8,120.6,86.8,120.6z
	 M86.8,124.3c-0.8,0-1.4-0.7-1.4-1.6c0-0.9,0.6-1.6,1.4-1.6c0.8,0,1.4,0.7,1.4,1.6C88.2,123.6,87.6,124.3,86.8,124.3z"/>
<path class="st1" d="M87.6,122.2c0-0.5-0.3-0.7-0.8-0.7H86v2.3h0.4v-1h0.2l0.6,1h0.4l-0.6-1C87.4,122.7,87.6,122.5,87.6,122.2z
	 M86.8,122.4h-0.4v0.1v-0.1v-0.6h0.4c0.2,0,0.4,0,0.4,0.3C87.2,122.4,87,122.4,86.8,122.4z"/>
<path class="st1" d="M84.1,110.8l-2.4,9.1c-0.3,1.1-0.8,2.9-0.8,2.9h-0.1c0,0-0.4-2.1-0.8-3.5l-2.6-9l-2,0.7l2.8,8.7
	c0.4,1.4,1.1,4.1,1.3,5c0,0,0.1,0.5,0.3,1.6c-0.5,1.5-1.2,2.1-2.5,2.6l0.6,1.5c2.2-0.6,3.3-2.4,4.1-5.2l4.4-14.4H84.1z"/>
<path class="st1" d="M74.1,112.5l0.6-1.6h-3.2v-5.3h-2.1v5.3h-1.7v1.6h1.7v9.5c0,1.4,0.3,2.3,1.2,2.8c0.5,0.3,1,0.4,1.7,0.4
	c0.9,0,1.6-0.2,2.3-0.6l-0.3-1.4c-0.4,0.2-0.7,0.3-1.3,0.3c-1.3,0-1.6-0.5-1.6-2.1v-8.9H74.1z"/>
<path class="st1" d="M59,110.7L59,110.7L59,110.7v-5.2h-2.1v5.3h-1.7v1.6h1.7v9.5c0,1.4,0.3,2.3,1.2,2.8c0.5,0.3,1,0.4,1.7,0.4
	c0.9,0,1.6-0.2,2.3-0.6l-0.3-1.4c-0.4,0.2-0.7,0.3-1.3,0.3c-1.3,0-1.6-0.5-1.6-2.1v-8.9h5.6v12.2h2.1v-14.2l-1.8,0.3H59z"/>
<path class="st1" d="M50.6,110.5c-1.4,0-2.7,0.7-4,2.1c0-1.1-0.5-2.2-0.5-2.2l-2,0.6c0,0,0.5,0.9,0.5,2.9v10.7h2v-10.3
	c0.9-1.1,2.5-2,3.6-2c0.6,0,1.1,0.2,1.4,0.6c0.4,0.5,0.5,0.8,0.5,2.3v9.4h2v-10.5c0-0.6-0.1-1.1-0.3-1.6
	C53.2,111.3,52,110.5,50.6,110.5z"/>
<path class="st1" d="M38.1,110.5c-1.5,0-2.8,0.6-3.8,1.9c-1.1,1.4-1.5,2.9-1.5,5.2c0,4.6,2.1,7.4,5.7,7.4c1.6,0,3.2-0.6,4.3-1.7
	l-0.8-1.4c-0.9,0.9-1.9,1.3-3.1,1.3c-1.3,0-2.5-0.5-3.2-1.7c-0.4-0.7-0.6-1.7-0.6-3v-0.3h8v-0.1v-0.3c0-3.3-0.4-4.6-1.5-5.8
	C40.7,111,39.5,110.5,38.1,110.5z M35,116.5c0.2-2.9,1.2-4.3,3-4.3c1,0,1.9,0.5,2.3,1.2c0.4,0.7,0.6,1.6,0.6,3.1H35z"/>
<path class="st1" d="M31.3,105.6h-2v4.6c0,1,0,2.1,0,2.1c-0.8-1.1-2-1.8-3.5-1.8c-0.9,0-1.6,0.2-2.5,0.9c-1.7,1.3-2.7,3.5-2.7,6.4
	c0,4.4,1.9,7,5.2,7c1.5,0,2.5-0.5,3.4-1.6c0,0.7,0.3,1.4,0.3,1.4h2.1c-0.2-0.7-0.3-2-0.3-4.4V105.6z M28.5,122.1
	c-0.8,0.6-1.4,0.9-2.5,0.9c-1.2,0-2-0.5-2.6-1.6c-0.4-0.8-0.5-2-0.5-3.6c0-1.9,0.2-3,0.8-4c0.5-0.9,1.4-1.4,2.4-1.4
	c1.5,0,2.5,0.5,3.1,1.4v7.3h0.1C29.3,121.1,29.1,121.7,28.5,122.1z"/>
<rect x="17.7" y="105.6" class="st1" width="2.1" height="19.1"/>
<path class="st1" d="M26.1,87.3h4.6c4.6,0,6.5-0.5,8.4-1.5c4.6-2.3,7.2-7,7.2-12.9c0.1-5.1-2-9.2-6-11.5c-2.4-1.4-4.5-2.2-11.6-2.2
	h-11v44.4h8.4V87.3z M26.1,66.4h5.4c3.6,0,5.7,2.5,5.7,6.6c-0.1,2.2-0.4,3.5-1.1,4.7C35,79.5,33.9,80,30.5,80h-4.4V66.4z"/>
<path class="st1" d="M53.2,67.2c2.8,0,5-2.4,5-5.3c0-2.9-2.1-5.3-4.8-5.3c-2.8,0-5.1,2.4-5.1,5.3C48.3,64.8,50.5,67.2,53.2,67.2z"/>
<polygon class="st1" points="49.2,103.5 57.3,103.5 57.3,70.1 49.2,71.5 "/>
<path class="st1" d="M62,103.5h8.1V80.4c1.9-1.8,4-2.9,5.6-2.9c2.1,0,2.7,1.1,2.7,4.8v21.4h8V79.8c0-2.1-0.2-3.5-0.6-4.7
	c-0.9-2.8-4-4.7-7.4-4.7c-1.8,0-3.9,0.5-5.5,1.4c-1.4,0.7-2.4,1.5-3.6,2.4c0-1.4-0.4-2.8-1.1-4.1l-7.3,2.1c0.7,2.2,1.1,4.9,1.1,7.7
	V103.5z"/>
<path class="st1" d="M121.8,74.4l-3.4-5.4c-1.9,1.8-4.2,2.8-6.4,2.8c-1,0-2.1-0.3-3.8-0.7c-2.2-0.6-3.8-0.8-5.5-0.8
	c-7.9,0-13,4.3-13,11c0,4.8,2.2,7.8,6.6,9.1c-5.1,1.4-5.7,3.4-5.7,5.5c0,2.2,0.9,3.7,2.4,4.3c1.4,0.6,3.8,1,7.4,1l3.4,0.1
	c3.2,0.1,5.7,1,5.7,3.9c0,1.3-0.8,2.6-2,3.3c-1.3,0.8-3,1.1-5.1,1.1c-3.7,0-5.8-1.4-5.8-4c0-0.9,0.1-1.3,0.4-2.1h-7.5
	c-0.3,0.6-0.7,1.5-0.7,3.3c0,2.2,0.8,4.1,2.5,5.8c2.8,2.7,7.3,3.5,11.7,3.5c4.8,0,9.5-1.1,12.2-4.2c1.7-1.9,2.5-4,2.5-6.8
	c0-2.9-0.8-5.2-2.7-7c-2.2-2-4.7-2.8-9.4-2.9l-4.3-0.1c-0.8,0-1.3-0.3-1.3-0.8c0-0.9,1.1-1.7,3.2-2.7c0.6,0.1,0.8,0.1,1.2,0.1
	c6.6,0,11.4-4.1,11.4-9.7c0-2.2-0.6-3.8-1.8-5.4c0.5,0.1,1.3,0.2,2.1,0.2C118.3,76.8,120,76.1,121.8,74.4z M102.5,86.1
	c-2.9,0-4.8-1.3-4.8-4.7c0-3.1,1.8-4.9,4.8-4.9c3.1,0,4.9,1.8,4.9,4.9C107.4,84.4,105.7,86.1,102.5,86.1z"/>
</svg>
