<?xml version="1.0" encoding="utf-8"?>
<!-- Generator: Adobe Illustrator 22.1.0, SVG Export Plug-In . SVG Version: 6.00 Build 0)  -->
<svg version="1.1" id="Layer_1" xmlns="http://www.w3.org/2000/svg" xmlns:xlink="http://www.w3.org/1999/xlink" x="0px" y="0px"
	 viewBox="0 0 146.7 152" enable-background="new 0 0 146.7 152" xml:space="preserve">
<g id="Grouped_Components_1_">
	<rect id="Square_1_" x="4.3" y="8.5" fill="#E51C3A" width="130.3" height="130.3"/>
	<g id="Logotype_1_">
		<g>
			<path fill="#F5F5F5" d="M86.8,120.6c-1.1,0-1.9,0.9-1.9,2c0,1.1,0.9,2,1.9,2c1.1,0,1.9-0.9,1.9-2
				C88.7,121.5,87.8,120.6,86.8,120.6z M86.8,124.3c-0.8,0-1.4-0.7-1.4-1.6c0-0.9,0.6-1.6,1.4-1.6c0.8,0,1.4,0.7,1.4,1.6
				C88.2,123.6,87.6,124.3,86.8,124.3z"/>
			<path fill="#F5F5F5" d="M87.6,122.2c0-0.5-0.3-0.7-0.8-0.7H86v2.3h0.4v-1h0.2l0.6,1h0.4l-0.6-1C87.4,122.7,87.6,122.5,87.6,122.2
				z M86.4,122.5v-0.7h0.4c0.2,0,0.4,0,0.4,0.3c0,0.3-0.2,0.3-0.4,0.3H86.4z"/>
		</g>
		<g id="Identity">
			<path id="y" fill="#F5F5F5" d="M81.7,119.9c-0.3,1.1-0.8,2.9-0.8,2.9h-0.1c0,0-0.4-2.1-0.8-3.5l-2.6-9l-2,0.7l2.8,8.7
				c0.4,1.4,1.1,4.1,1.3,5c0,0,0.1,0.5,0.3,1.6c-0.5,1.5-1.2,2.1-2.5,2.6l0.6,1.5c2.2-0.6,3.3-2.4,4.1-5.2l4.4-14.4h-2.3L81.7,119.9
				z"/>
			<path id="t" fill="#F5F5F5" d="M74.1,112.5l0.6-1.6h-3.2v-5.3h-2.1v5.3h-1.7v1.6h1.7v9.5c0,1.4,0.3,2.3,1.2,2.8
				c0.5,0.3,1,0.4,1.7,0.4c0.9,0,1.6-0.2,2.3-0.6l-0.3-1.4c-0.4,0.2-0.7,0.3-1.3,0.3c-1.3,0-1.6-0.5-1.6-2.1v-8.9H74.1z"/>
			<path id="ti" fill="#F5F5F5" d="M59,110.8l0-5.3h-2.1l0,5.3h-1.7v1.6h1.7v9.5c0,1.4,0.3,2.3,1.2,2.8c0.5,0.3,1,0.4,1.7,0.4
				c0.9,0,1.6-0.2,2.3-0.6l-0.3-1.4c-0.4,0.2-0.7,0.3-1.3,0.3c-1.3,0-1.6-0.5-1.6-2.1v-8.9h5.6v12.2h2.1v-14.2l-1.8,0.3H59z"/>
			<path id="n" fill="#F5F5F5" d="M50.6,110.5c-1.4,0-2.7,0.7-4,2.1c0-1.1-0.5-2.2-0.5-2.2l-2,0.6c0,0,0.5,0.9,0.5,2.9v10.7h2v-10.3
				c0.9-1.1,2.5-2,3.6-2c0.6,0,1.1,0.2,1.4,0.6c0.4,0.5,0.5,0.8,0.5,2.3v9.4h2v-10.5c0-0.6-0.1-1.1-0.3-1.6
				C53.2,111.3,52,110.5,50.6,110.5z"/>
			<path id="e" fill="#F5F5F5" d="M43.1,118.1v-0.3c0-3.3-0.4-4.6-1.5-5.8c-0.9-1-2.1-1.5-3.5-1.5c-1.5,0-2.8,0.6-3.8,1.9
				c-1.1,1.4-1.5,2.9-1.5,5.2c0,4.6,2.1,7.4,5.7,7.4c1.6,0,3.2-0.6,4.3-1.7l-0.8-1.4c-0.9,0.9-1.9,1.3-3.1,1.3
				c-1.3,0-2.5-0.5-3.2-1.7c-0.4-0.7-0.6-1.7-0.6-3v-0.3H43.1z M38,112.2c1,0,1.9,0.5,2.3,1.2c0.4,0.7,0.6,1.6,0.6,3.1h-5.9
				C35.2,113.6,36.2,112.2,38,112.2z"/>
			<path id="d" fill="#F5F5F5" d="M31.3,120.2v-14.6h-2v4.6c0,1,0,2.1,0,2.1c-0.8-1.1-2-1.8-3.5-1.8c-0.9,0-1.6,0.2-2.5,0.9
				c-1.7,1.3-2.7,3.5-2.7,6.4c0,4.4,1.9,7,5.2,7c1.5,0,2.5-0.5,3.4-1.6c0,0.7,0.3,1.4,0.3,1.4h2.1C31.4,123.9,31.3,122.6,31.3,120.2
				z M29.3,121.1c0,0-0.2,0.6-0.8,1c-0.8,0.6-1.4,0.9-2.5,0.9c-1.2,0-2-0.5-2.6-1.6c-0.4-0.8-0.5-2-0.5-3.6c0-1.9,0.2-3,0.8-4
				c0.5-0.9,1.4-1.4,2.4-1.4c1.5,0,2.5,0.5,3.1,1.4V121.1z"/>
			<rect id="I" x="17.7" y="105.6" fill="#F5F5F5" width="2.1" height="19.1"/>
		</g>
		<g id="Ping">
			<path id="P" fill="#F5F5F5" d="M40.3,61.4c-2.4-1.4-4.5-2.2-11.6-2.2h-11v44.4l8.4,0V87.3h4.6c4.6,0,6.5-0.5,8.4-1.5
				c4.6-2.3,7.2-7,7.2-12.9C46.4,67.8,44.3,63.7,40.3,61.4z M36.1,77.7C35,79.5,33.9,80,30.5,80h-4.4V66.4h5.4
				c3.6,0,5.7,2.5,5.7,6.6C37.1,75.2,36.8,76.5,36.1,77.7z"/>
			<path id="i" fill="#F5F5F5" d="M58.2,61.9c0,2.9-2.2,5.3-5,5.3c-2.7,0-4.9-2.4-4.9-5.3c0-2.9,2.3-5.3,5.1-5.3
				C56.1,56.6,58.2,59,58.2,61.9z M57.3,70.1v33.4h-8.1V71.5L57.3,70.1z"/>
			<path id="n_1_" fill="#F5F5F5" d="M68.2,70.1c0.7,1.3,1.1,2.7,1.1,4.1c1.2-0.9,2.2-1.7,3.6-2.4c1.6-0.9,3.7-1.4,5.5-1.4
				c3.4,0,6.5,1.9,7.4,4.7c0.4,1.2,0.6,2.6,0.6,4.7v23.9h-8V82.3c0-3.7-0.6-4.8-2.7-4.8c-1.6,0-3.7,1.1-5.6,2.9v23.1h-8.1V79.9
				c0-2.8-0.4-5.5-1.1-7.7L68.2,70.1z"/>
			<path id="g" fill="#F5F5F5" d="M105.6,95.2l-4.3-0.1c-0.8,0-1.3-0.3-1.3-0.8c0-0.9,1.1-1.7,3.2-2.7c0.6,0.1,0.8,0.1,1.2,0.1
				c6.6,0,11.4-4.1,11.4-9.7c0-2.2-0.6-3.8-1.8-5.4c0.5,0.1,1.3,0.2,2.1,0.2c2.2,0,3.9-0.7,5.7-2.4l-3.4-5.4
				c-1.9,1.8-4.2,2.8-6.4,2.8c-1,0-2.1-0.3-3.8-0.7c-2.2-0.6-3.8-0.8-5.5-0.8c-7.9,0-13,4.3-13,11c0,4.8,2.2,7.8,6.6,9.1
				c-5.1,1.4-5.7,3.4-5.7,5.5c0,2.2,0.9,3.7,2.4,4.3c1.4,0.6,3.8,1,7.4,1l3.4,0.1c3.2,0.1,5.7,1,5.7,3.9c0,1.3-0.8,2.6-2,3.3
				c-1.3,0.8-3,1.1-5.1,1.1c-3.7,0-5.8-1.4-5.8-4c0-0.9,0.1-1.3,0.4-2.1h-7.5c-0.3,0.6-0.7,1.5-0.7,3.3c0,2.2,0.8,4.1,2.5,5.8
				c2.8,2.7,7.3,3.5,11.7,3.5c4.8,0,9.5-1.1,12.2-4.2c1.7-1.9,2.5-4,2.5-6.8c0-2.9-0.8-5.2-2.7-7C112.8,96.1,110.3,95.3,105.6,95.2z
				 M97.7,81.4c0-3.1,1.8-4.9,4.8-4.9c3.1,0,4.9,1.8,4.9,4.9c0,3-1.7,4.7-4.9,4.7C99.6,86.1,97.7,84.8,97.7,81.4z"/>
		</g>
	</g>
</g>
</svg>
