<svg xmlns="http://www.w3.org/2000/svg" viewBox="0 285.8 800 231.2">
  <path d="M0 287.7V515h227.3V287.7H0zm28.2 106c-5.8-22.7 8.6-43.8 31.7-48.9 2.2-.5 4.4-.7 6.7-.7 30.8-.1 61.5 0 92.3 0 .9 0 1.8.2 2.8.2l-78.2 78.5c-1 1-2.4 2.1-3.7 2.2-23.5 2.1-45-4.9-51.6-31.3zm139.2 63.9c-2.2.5-4.4.7-6.7.7-30.8.1-61.5 0-92.3 0-.9 0-1.8-.2-2.8-.2l78.3-78.5c1-1 2.4-2.1 3.7-2.2 23.5-2.1 45 4.9 51.6 31.3 5.7 22.6-8.7 43.8-31.8 48.9zM243.8 410.1h38.9c35.3 0 62.4 15.5 62.4 54.2 0 31.3-22.1 51.1-52.9 51.1h-48.4V410.1zm38.3 73.7h2.4c12.7 0 22.5-5.9 22.5-19.7 0-14.8-8.5-21.1-22.5-21.1h-2.4v40.8zM348.1 410.1h38.2v105.2h-38.2V410.1zM505.1 453.4c-.3 17.2-.3 31.5-12.7 44.9-11.2 12.1-28.3 18.7-44.7 18.7-32.1 0-58.1-19.8-58.1-53.6 0-34.3 25.3-55 58.3-55 18.3 0 43.4 9.1 51.6 27.1l-35.7 13.1c-2.9-5.3-8.4-8.1-14.5-8.1-13.7 0-21.2 11.7-21.2 24.4 0 11.6 7.3 22.5 19.7 22.5 6 0 13.7-2.8 15.5-9.2H446v-24.8h59.1zM508.7 410.1H547v105.2h-38.2l-.1-105.2zM551.8 410.1h80.4v34.2l-21.1-1v72h-38.2v-72l-21.1 1v-34.2zM654.8 515.3h-40.5l36.6-105.2h42.3l37.5 105.2h-40.5l-3.5-13.1h-28.9l-3 13.1zm25.3-38.1l-4.5-18.6c-1.1-4.5-1.8-9.1-2.5-13.5h-1.4l-7 32.1h15.4z"/>
  <path d="M729.7 410.1h38.2v71.5H800v33.8h-70.3V410.1zM333 287.6h53.3c27 0 47 13.8 47 42.5 0 23.6-14.7 38.4-38.2 38.4h-21.5v34.8H333V287.6zm40.5 51.8h4.1c7.4 0 15.4-1.2 15.4-10.6 0-9.1-8.6-9.5-15.5-9.5h-4v20.1zM437.5 287.6h42.1v115.7h-42.1V287.6zM486.2 287.6H537c26.1 0 48.2 11.1 48.2 40.2 0 17.5-6.8 24.9-22.4 30.1v.9c2.1 1.7 4.8 3.5 7.1 6.9l25.2 37.6h-48.5l-18.4-37.1h-.8v37.1h-41.1l-.1-115.7zm41.2 51.3h2.9c6.9 0 13.8-1.1 13.8-9.7 0-8.9-6.3-10-13.5-10h-3.2v19.7z"/>
  <path d="M590.5 287.6h77.8v31.6h-35.5v11.1h32.4v30.1h-32.4v11.4h36.7v31.6h-79.1l.1-115.8zM303.8 330.8l-9.5-2.1c-3.2-.8-8.4-1.4-8.4-5.7 0-4.8 5.4-6.1 9.1-6.1 8.5 0 16.1 3.4 23 7.8l11.4-29.5c-11.1-6.4-22.8-9.4-35.4-9.4-25.2 0-50.2 15.4-50.2 42.8 0 18.1 13.8 27.8 30.2 30.7l8.4 1.5c3.8.8 9.4 1.2 9.4 6.4s-6.6 6.9-10.7 6.9c-9.7 0-18.7-4.8-26.2-10.6l-2.1-1.7-12.9 32.7c13 6.6 29.9 10.6 44.5 10.6 25 0 50.2-13.7 50.2-41.3-.1-19.5-13-29-30.8-33z"/>
</svg>
