<?xml version="1.0" encoding="utf-8"?>
<!-- Generator: Adobe Illustrator 22.1.0, SVG Export Plug-In . SVG Version: 6.00 Build 0)  -->
<svg version="1.1" id="Layer_1" xmlns="http://www.w3.org/2000/svg" xmlns:xlink="http://www.w3.org/1999/xlink" x="0px" y="0px"
	 viewBox="0 0 33.4 36.1" enable-background="new 0 0 33.4 36.1" xml:space="preserve">
<path fill-rule="evenodd" clip-rule="evenodd" fill="#123A5B" d="M30.3,26.9h0.4c0.2,0,0.3,0,0.3,0c0.1,0,0.1,0.1,0.1,0.1
	c0,0,0.1,0.1,0.1,0.2c0,0.1,0,0.2-0.1,0.2c-0.1,0.1-0.2,0.1-0.4,0.1h-0.4L30.3,26.9L30.3,26.9z M30.3,28.7v-0.9h0.2
	c0.1,0,0.2,0,0.3,0.1c0.1,0.1,0.2,0.2,0.3,0.5l0.2,0.3h0.4l-0.2-0.4c-0.1-0.2-0.2-0.3-0.3-0.4c0,0-0.1-0.1-0.2-0.1
	c0.2,0,0.3-0.1,0.4-0.2c0.1-0.1,0.2-0.2,0.2-0.4c0-0.1,0-0.2-0.1-0.3c-0.1-0.1-0.1-0.2-0.3-0.2c-0.1,0-0.3-0.1-0.5-0.1H30v2H30.3z
	 M31.6,26.3c0.3,0.1,0.4,0.3,0.6,0.6c0.1,0.3,0.2,0.5,0.2,0.8c0,0.3-0.1,0.5-0.2,0.8c-0.1,0.3-0.3,0.4-0.6,0.6
	c-0.3,0.1-0.5,0.2-0.8,0.2c-0.3,0-0.5-0.1-0.8-0.2c-0.3-0.1-0.4-0.3-0.6-0.6c-0.1-0.3-0.2-0.5-0.2-0.8c0-0.3,0.1-0.5,0.2-0.8
	c0.1-0.3,0.3-0.5,0.6-0.6c0.3-0.1,0.5-0.2,0.8-0.2C31.1,26.1,31.3,26.1,31.6,26.3z M29.9,26c-0.3,0.2-0.5,0.4-0.7,0.7
	c-0.2,0.3-0.3,0.6-0.3,1c0,0.3,0.1,0.6,0.3,0.9c0.2,0.3,0.4,0.5,0.7,0.7c0.3,0.2,0.6,0.3,0.9,0.3c0.3,0,0.6-0.1,0.9-0.3
	c0.3-0.2,0.5-0.4,0.7-0.7c0.2-0.3,0.2-0.6,0.2-0.9c0-0.3-0.1-0.6-0.3-1c-0.2-0.3-0.4-0.5-0.7-0.7c-0.3-0.2-0.6-0.2-0.9-0.2
	C30.5,25.7,30.2,25.8,29.9,26z M26.7,31.6l-1.1-3.5l-1.2,3.5H26.7z M19.4,31.6l-1.1-3.5L17,31.6H19.4z M29.4,34.4h-1.8l-0.5-1.6H24
	l-0.5,1.6h-3.1l-0.5-1.6h-3.1l-0.5,1.6h-1.7l3-8.2l-0.3-0.7H19l2.9,8.4l2.8-7.7l-0.3-0.7h1.8L29.4,34.4z M6,31.2
	c0,0.7-0.2,2.1-1.8,2c-1.5,0-1.7-1.4-1.7-2.3v-5.4H0.7V31c0,3.1,1.9,3.6,3.4,3.6c2.3,0,3.4-1.5,3.4-3.6v-5.4H6V31.2z M14.2,31.9
	c0,1.6-1.3,2.7-3,2.7c-1.8,0-2.4-0.3-2.4-0.3l-0.2-1.7c0,0,1,0.7,2.5,0.7c0.4,0,1.3-0.3,1.3-1.1c0-0.8-0.7-1.1-0.9-1.2
	c-0.4-0.2-0.8-0.4-1.2-0.6c-0.7-0.3-1.7-1-1.7-2.3c0-2,1.7-2.7,3.1-2.7c1.1,0,2.1,0.5,2.1,0.5v1.6c-0.3-0.2-0.8-0.8-2.1-0.8
	c-0.9,0-1.4,0.5-1.4,1.1c0,0.6,0.5,1,1,1.2c0.5,0.2,0.8,0.4,1.3,0.6C13.4,30,14.2,30.7,14.2,31.9z M15.8,6.9l10.5,6.2
	c0,0,0.8,0.6,1.6,0.6c0.8,0,1.5-0.6,1.5-0.6v-2.9c0,0-0.7,0.5-1.5,0.5c-0.8,0-1.6-0.6-1.6-0.6l-8.1-4.8l-0.6-2.2
	c0-0.1,0.1-0.1,0.1-0.1l1.4-0.4c0.2,0,0.3,0.2,0.3,0.3l0.1,0.2c0,0,0.3,0,0.3-0.1V2.2c0-0.6-0.4-1.1-1-1.1h-1.4c0,0-0.2-0.5-0.8-0.5
	H14c-0.7,0-0.9,0.7-0.9,0.7l-1.8,7.4L3.9,4.3c0,0-0.8-0.6-1.6-0.6c-0.8,0-1.5,0.6-1.5,0.6v2.9c0,0,0.7-0.5,1.5-0.5
	c0.8,0,1.6,0.6,1.6,0.6l9.1,5.4l2.1-9.1L15.8,6.9z M3.9,8.1c0,0-0.8-0.6-1.6-0.6c-0.8,0-1.5,0.6-1.5,0.6v2.9c0,0,0.7-0.5,1.5-0.5
	c0.8,0,1.6,0.6,1.6,0.6l8.3,5l0.6-2.6L3.9,8.1z M26.3,16.9c0,0,0.8,0.6,1.6,0.6c0.8,0,1.5-0.6,1.5-0.6V14c0,0-0.7,0.5-1.5,0.5
	c-0.8,0-1.6-0.6-1.6-0.6L16,7.8l0.8,3.4L26.3,16.9z M3.9,11.8c0,0-0.8-0.6-1.6-0.6c-0.8,0-1.5,0.6-1.5,0.6v2.9c0,0,0.7-0.5,1.5-0.5
	c0.8,0,1.6,0.6,1.6,0.6l7.6,4.5l0.6-2.6L3.9,11.8z M26.3,20.6c0,0,0.8,0.6,1.6,0.6c0.8,0,1.5-0.6,1.5-0.6v-2.9c0,0-0.7,0.5-1.5,0.5
	c-0.8,0-1.6-0.6-1.6-0.6L17,12.2l0.8,3.4L26.3,20.6z M3.9,15.5c0,0-0.8-0.6-1.6-0.6c-0.8,0-1.5,0.6-1.5,0.6v2.9c0,0,0.7-0.5,1.5-0.5
	c0.8,0,1.6,0.6,1.6,0.6l6.9,4.1l0.6-2.6L3.9,15.5z M26.3,24.4c0,0,0.8,0.6,1.6,0.6c0.8,0,1.5-0.6,1.5-0.6v-2.9c0,0-0.7,0.5-1.5,0.5
	c-0.8,0-1.6-0.6-1.6-0.6L18,16.5l0.8,3.4L26.3,24.4z"/>
</svg>
